<?xml version="1.0" encoding="UTF-8" standalone="no"?>
<!-- Created with Inkscape (http://www.inkscape.org/) -->

<svg
   version="1.1"
   id="svg4367"
   xml:space="preserve"
   width="530.66669"
   height="530.66669"
   viewBox="0 0 530.66669 530.66669"
   sodipodi:docname="joker-card-pdv.svg"
   inkscape:version="1.1.2 (b8e25be833, 2022-02-05)"
   xmlns:inkscape="http://www.inkscape.org/namespaces/inkscape"
   xmlns:sodipodi="http://sodipodi.sourceforge.net/DTD/sodipodi-0.dtd"
   xmlns="http://www.w3.org/2000/svg"
   xmlns:svg="http://www.w3.org/2000/svg"><defs
     id="defs4371"><clipPath
       clipPathUnits="userSpaceOnUse"
       id="clipPath4381"><path
         d="M 0,398 H 398 V 0 H 0 Z"
         id="path4379" /></clipPath><clipPath
       clipPathUnits="userSpaceOnUse"
       id="clipPath4389"><path
         d="M 58,398 H 340 V 0 H 58 Z"
         id="path4387" /></clipPath></defs><sodipodi:namedview
     id="namedview4369"
     pagecolor="#ffffff"
     bordercolor="#666666"
     borderopacity="1.0"
     inkscape:pageshadow="2"
     inkscape:pageopacity="0.0"
     inkscape:pagecheckerboard="0"
     showgrid="false"
     inkscape:zoom="1.5659547"
     inkscape:cx="265.33334"
     inkscape:cy="265.33334"
     inkscape:window-width="1920"
     inkscape:window-height="1018"
     inkscape:window-x="-8"
     inkscape:window-y="-8"
     inkscape:window-maximized="1"
     inkscape:current-layer="g4373" /><g
     id="g4373"
     inkscape:groupmode="layer"
     inkscape:label="joker-card-pdv"
     transform="matrix(1.3333333,0,0,-1.3333333,0,530.66667)"><g
       id="g4375"><g
         id="g4377"
         clip-path="url(#clipPath4381)"><g
           id="g4383"><g
             id="g4385"
             clip-path="url(#clipPath4389)"><path
               d="m 196.863,135.839 0.016,0.605 c -0.011,-10e-4 -0.021,-10e-4 -0.032,-10e-4 z m -16.869,40.225 -2.108,1.12 -2.093,1.144 -2.081,1.165 -2.069,1.184 -4.081,2.388 c -0.326,0.191 -0.643,0.39 -1.005,0.578 l -0.263,0.145 -0.066,0.035 -0.032,0.018 c 0.061,-0.026 0.012,-0.004 0.023,-0.009 l -0.006,0.002 -0.015,0.006 -0.114,0.053 c -0.152,0.072 -0.304,0.134 -0.457,0.192 -0.608,0.237 -1.235,0.333 -1.734,0.251 -0.497,-0.09 -0.825,-0.319 -1.008,-0.828 -0.171,-0.515 -0.077,-1.237 0.167,-1.912 0.236,-0.689 0.61,-1.37 1.048,-2.015 0.274,-0.405 0.575,-0.796 0.889,-1.185 3.684,-1.826 10.276,-2.13 15.68,-2.681 z m 62.796,13.315 c -0.001,0.057 -0.011,0.11 -0.014,0.165 l -2.694,-5.785 c 0.093,-0.176 0.135,-0.343 0.184,-0.528 0.063,-0.201 0.08,-0.391 0.095,-0.59 0.02,-0.2 0.039,-0.411 0.022,-0.608 -0.011,-0.2 -0.023,-0.41 -0.034,-0.627 -0.031,-0.204 -0.064,-0.417 -0.097,-0.635 -0.051,-0.441 -0.189,-0.863 -0.288,-1.317 -0.114,-0.448 -0.271,-0.891 -0.408,-1.349 -0.143,-0.454 -0.327,-0.899 -0.49,-1.35 -0.159,-0.454 -0.352,-0.891 -0.534,-1.323 -0.187,-0.432 -0.354,-0.862 -0.546,-1.264 -0.382,-0.807 -0.718,-1.564 -1.039,-2.2 -0.64,-1.268 -1.066,-2.113 -1.066,-2.113 0,0 0.302,0.896 0.756,2.239 0.227,0.671 0.453,1.465 0.714,2.307 0.131,0.421 0.234,0.865 0.356,1.31 0.117,0.445 0.245,0.898 0.336,1.354 0.094,0.456 0.211,0.909 0.283,1.357 0.068,0.447 0.156,0.887 0.2,1.307 0.03,0.421 0.105,0.834 0.09,1.205 0.003,0.187 0.005,0.367 0.007,0.543 -0.016,0.164 -0.03,0.324 -0.045,0.475 -0.005,0.159 -0.042,0.283 -0.071,0.401 -0.007,0.031 -0.015,0.058 -0.022,0.086 l -3.34,-9.404 c 0.146,-0.773 0.281,-1.546 0.404,-2.321 0.119,-0.775 0.251,-1.548 0.358,-2.324 l 0.326,-2.326 c 0.031,-0.212 0.056,-0.425 0.083,-0.639 0.12,0.032 0.241,0.069 0.378,0.107 0.194,0.073 0.416,0.151 0.619,0.266 0.212,0.106 0.413,0.243 0.605,0.405 0.193,0.162 0.367,0.359 0.52,0.587 0.154,0.228 0.273,0.494 0.371,0.778 0.085,0.289 0.16,0.597 0.184,0.913 0.02,0.192 0.026,0.386 0.026,0.579 l -0.071,0.267 0.06,0.14 c -0.037,0.62 -0.147,1.207 -0.275,1.707 -0.26,1.02 -0.567,1.67 -0.567,1.67 0,0 0.458,-0.549 0.981,-1.507 0.119,-0.214 0.237,-0.459 0.352,-0.716 0.177,0.416 0.355,0.843 0.516,1.279 l 0.268,0.694 0.275,1.075 0.423,1.864 0.415,1.854 0.386,1.854 c 0.139,0.615 0.232,1.237 0.343,1.857 0.113,0.617 0.215,1.237 0.292,1.856 0.085,0.619 0.177,1.237 0.226,1.855 0.063,0.618 0.122,1.235 0.143,1.847 0.044,0.615 0.042,1.223 0.04,1.828 0.009,0.304 -0.024,0.598 -0.036,0.895 m -43.098,-46.941 -0.82,-0.031 c -0.546,-0.02 -1.094,-0.025 -1.643,-0.032 -0.552,0.003 -1.101,0.016 -1.662,0.046 -0.554,0.017 -1.131,0.075 -1.699,0.119 l -1.354,0.108 -0.481,1.427 c -0.064,0.191 -0.108,0.387 -0.194,0.579 -0.074,0.196 -0.173,0.39 -0.282,0.582 -0.105,0.195 -0.235,0.386 -0.368,0.577 -0.146,0.188 -0.28,0.385 -0.447,0.57 -0.318,0.378 -0.68,0.746 -1.081,1.092 -0.398,0.349 -0.815,0.697 -1.266,1.019 -0.451,0.319 -0.916,0.635 -1.396,0.938 -0.483,0.3 -0.983,0.581 -1.487,0.864 -0.505,0.282 -1.026,0.543 -1.549,0.8 l -0.79,0.376 -0.779,0.341 -0.119,0.055 c -2.132,-2.348 -4.967,-4.602 -8.565,-5.733 -0.389,0.018 -0.442,-0.354 -0.241,-1.032 4.391,-1.777 14.037,-5.013 23.278,-4.814 L 196.813,138 h 0.1 l 0.066,2.289 c 9.642,-0.206 19.725,3.416 23.819,5.114 0.126,0.538 0.044,0.787 -0.302,0.771 -3.755,1.18 -6.682,3.566 -8.842,6.024 l -1.851,-0.456 c -0.236,-0.056 -0.474,-0.089 -0.7,-0.162 -0.229,-0.059 -0.453,-0.135 -0.669,-0.219 -0.221,-0.068 -0.429,-0.176 -0.639,-0.264 -0.205,-0.107 -0.41,-0.204 -0.604,-0.329 -0.389,-0.235 -0.764,-0.493 -1.108,-0.798 -0.177,-0.142 -0.339,-0.31 -0.504,-0.47 -0.162,-0.166 -0.323,-0.33 -0.476,-0.508 -0.609,-0.708 -1.141,-1.511 -1.596,-2.368 -0.228,-0.431 -0.429,-0.875 -0.622,-1.323 -0.092,-0.225 -0.183,-0.449 -0.262,-0.675 l -0.113,-0.334 c -0.032,-0.099 -0.075,-0.241 -0.084,-0.281 l -0.289,-1.401 -1.612,-0.121 c -0.294,-0.022 -0.557,-0.042 -0.833,-0.051 m -27.119,86.032 v 0 c 0.557,-0.577 1.168,-1.223 1.83,-1.942 -0.662,0.719 -1.273,1.365 -1.83,1.942 m 34.521,-112.562 0.004,0.001 0.213,0.056 -0.066,-0.01 c -0.047,-0.008 -0.101,-0.026 -0.151,-0.047 m 21.876,68.428 c -0.499,0.082 -1.127,-0.014 -1.735,-0.251 -0.151,-0.058 -0.304,-0.12 -0.457,-0.193 l -0.113,-0.052 -0.015,-0.006 -0.007,-0.002 c 0.011,0.005 -0.037,-0.017 0.025,0.009 l -0.033,-0.018 -0.067,-0.035 -0.262,-0.145 c -0.363,-0.188 -0.679,-0.387 -1.005,-0.578 l -4.082,-2.389 -2.069,-1.183 -2.081,-1.165 -2.092,-1.145 -2.108,-1.119 -0.676,-0.35 c 5.404,0.552 11.997,0.856 15.681,2.682 0.314,0.389 0.616,0.78 0.889,1.185 0.438,0.645 0.812,1.326 1.047,2.015 0.245,0.676 0.338,1.398 0.168,1.912 -0.182,0.509 -0.511,0.738 -1.008,0.828 m -22.169,-68.627 c -0.003,-0.009 0.021,0.017 0.044,0.047 -0.001,0 -0.003,-0.002 -0.004,-0.003 -0.021,-0.014 -0.048,-0.053 -0.04,-0.044 m 24.8,68.082 c -0.049,0.53 -0.26,1.1 -0.641,1.549 -0.375,0.457 -0.885,0.779 -1.399,0.963 -1.04,0.366 -2.064,0.286 -2.978,0.089 -0.232,-0.051 -0.458,-0.11 -0.677,-0.184 l -0.166,-0.052 -0.179,-0.065 -0.283,-0.1 c -0.37,-0.124 -0.766,-0.284 -1.156,-0.441 -0.783,-0.326 -1.502,-0.628 -2.242,-0.962 -0.731,-0.335 -1.467,-0.658 -2.185,-1.009 -1.448,-0.685 -2.875,-1.406 -4.294,-2.138 l -2.117,-1.119 -2.097,-1.152 c -2.17,-1.214 -4.309,-2.479 -6.419,-3.796 -0.155,1.471 -0.313,2.945 -0.486,4.416 l -0.393,3.353 c -0.069,0.558 -0.127,1.118 -0.182,1.677 -0.03,0.281 -0.058,0.561 -0.076,0.841 -0.014,0.28 -0.039,0.56 0.005,0.84 -0.137,-0.253 -0.206,-0.541 -0.271,-0.817 -0.065,-0.281 -0.122,-0.562 -0.176,-0.842 -0.098,-0.563 -0.174,-1.128 -0.251,-1.692 -0.157,-1.131 -0.239,-2.26 -0.344,-3.39 -0.092,-1.13 -0.162,-2.259 -0.212,-3.389 -0.059,-1.13 -0.085,-2.257 -0.116,-3.392 l -0.004,-0.167 -0.729,-0.401 -0.999,-23.025 c -0.171,-0.24 -0.336,-0.484 -0.493,-0.732 -0.339,-0.533 -0.648,-1.082 -0.918,-1.65 -0.052,-0.113 -0.101,-0.231 -0.152,-0.344 l -0.202,-0.004 c -0.51,-0.01 -1.018,-0.008 -1.525,-0.005 -0.504,0.014 -1.011,0.004 -1.505,0.026 -0.079,0.001 -0.154,0.008 -0.232,0.011 -0.124,0.242 -0.258,0.479 -0.4,0.704 -0.206,0.331 -0.432,0.634 -0.664,0.931 -0.237,0.287 -0.484,0.567 -0.743,0.818 -1.023,1.034 -2.158,1.822 -3.322,2.477 -0.58,0.331 -1.173,0.624 -1.772,0.886 -0.599,0.262 -1.199,0.507 -1.811,0.714 -0.61,0.209 -1.222,0.406 -1.842,0.569 -0.125,0.033 -0.252,0.062 -0.378,0.093 0.351,0.672 0.696,1.347 1.029,2.031 0.3,0.608 0.58,1.229 0.872,1.842 0.147,0.305 0.281,0.62 0.418,0.933 0.103,0.235 0.202,0.472 0.301,0.71 0.065,0.15 0.1,0.235 0.1,0.235 -0.255,-0.233 -0.499,-0.471 -0.743,-0.709 -0.243,-0.239 -0.491,-0.475 -0.724,-0.722 -0.471,-0.488 -0.953,-0.971 -1.414,-1.466 -0.932,-0.984 -1.827,-1.997 -2.716,-3.011 l -0.345,-0.394 c -3.711,-2.678 -9.188,-4.895 -16.531,-3.477 7.818,-7.746 17.747,-21.403 18.014,-21.938 -3.816,6.974 -7.84,13.62 -9.015,16.592 8.04,-5.413 13.179,-12.538 23.179,-14.249 v -0.054 c 0,0.008 -0.044,0.019 0.008,0.027 0.05,-0.008 0.027,-0.019 0.079,-0.027 l -0.037,0.054 c 10.148,1.755 15.24,9.209 23.65,14.666 -0.909,-2.728 -5.313,-9.688 -9.319,-17.009 0.267,0.535 10.189,14.192 18.008,21.938 -15.249,-2.944 -22.474,9.779 -22.474,9.779 0,0 0.087,-0.218 0.26,-0.591 l -0.648,0.947 c 0.078,-0.653 0.19,-1.304 0.334,-1.941 0.15,-0.634 0.284,-1.282 0.473,-1.907 0.17,-0.634 0.379,-1.252 0.581,-1.877 0.003,-0.007 0.006,-0.015 0.008,-0.023 -0.064,-0.009 -0.127,-0.014 -0.191,-0.026 -0.325,-0.043 -0.643,-0.132 -0.965,-0.208 -0.316,-0.096 -0.637,-0.187 -0.944,-0.312 -0.623,-0.234 -1.216,-0.545 -1.772,-0.898 -0.284,-0.172 -0.547,-0.368 -0.813,-0.563 -0.26,-0.2 -0.511,-0.411 -0.75,-0.63 -0.48,-0.439 -0.926,-0.909 -1.339,-1.4 -0.003,-0.006 -0.007,-0.013 -0.013,-0.018 l 3.718,19.312 c 0.068,-0.055 0.13,-0.105 0.202,-0.162 1.519,-1.188 3.632,-2.667 5.933,-3.815 0.571,-0.293 1.158,-0.553 1.74,-0.796 0.584,-0.243 1.17,-0.448 1.742,-0.632 0.576,-0.173 1.136,-0.32 1.675,-0.43 0.54,-0.109 1.053,-0.177 1.528,-0.227 0.476,-0.033 0.912,-0.056 1.297,-0.042 0.385,-0.008 0.72,0.046 0.994,0.061 0.545,0.075 0.851,0.13 0.851,0.13 0,0 -0.313,-0.01 -0.856,-0.008 -0.272,0.025 -0.602,0.018 -0.976,0.079 -0.374,0.041 -0.79,0.124 -1.239,0.221 -0.448,0.113 -0.928,0.248 -1.423,0.423 -0.495,0.18 -1.007,0.392 -1.523,0.633 -0.515,0.253 -1.038,0.525 -1.555,0.832 -0.515,0.307 -1.029,0.631 -1.527,0.984 -1.38,0.954 -2.652,2.044 -3.722,3.059 5.05,-2.944 10.415,-3.477 13.714,-0.248 3.547,3.473 5.558,7.304 6.145,8.519 0.484,0.329 0.958,0.679 1.399,1.079 0.6,0.56 1.185,1.171 1.631,1.926 0.431,0.75 0.808,1.635 0.717,2.709 m -21.863,-50.735 c 0,0 -0.337,-0.37 -0.93,-0.992 -0.595,-0.619 -1.455,-1.488 -2.526,-2.455 -0.536,-0.482 -1.137,-0.976 -1.775,-1.474 -0.644,-0.496 -1.355,-0.963 -2.097,-1.391 -0.748,-0.421 -1.542,-0.786 -2.363,-1.031 -0.205,-0.066 -0.413,-0.106 -0.62,-0.16 -0.208,-0.031 -0.417,-0.077 -0.624,-0.1 -0.206,-0.016 -0.428,-0.054 -0.608,-0.046 l -0.284,-0.008 -0.36,0.024 c -0.847,0.063 -1.767,0.257 -2.615,0.503 -0.858,0.256 -1.689,0.581 -2.472,0.959 -0.783,0.379 -1.529,0.788 -2.216,1.22 -0.683,0.44 -1.322,0.88 -1.9,1.307 -1.148,0.868 -2.073,1.664 -2.709,2.24 -0.635,0.577 -0.99,0.929 -0.99,0.929 0,0 0.199,-0.46 0.66,-1.203 0.46,-0.743 1.175,-1.777 2.211,-2.882 0.513,-0.558 1.103,-1.135 1.782,-1.688 0.675,-0.56 1.426,-1.114 2.264,-1.603 0.837,-0.491 1.754,-0.932 2.735,-1.26 0.99,-0.336 2,-0.563 3.108,-0.654 l 0.372,-0.02 0.452,0.009 c 0.31,-0.001 0.573,0.044 0.853,0.073 0.277,0.034 0.544,0.104 0.813,0.156 0.261,0.078 0.527,0.144 0.78,0.234 1.015,0.351 1.929,0.849 2.736,1.405 0.813,0.553 1.51,1.18 2.135,1.795 0.629,0.61 1.158,1.242 1.623,1.837 0.931,1.189 1.566,2.269 1.975,3.039 0.411,0.77 0.59,1.237 0.59,1.237 m -44.729,45.021 c 0.587,-1.215 2.598,-5.046 6.145,-8.519 3.299,-3.229 8.665,-2.696 13.714,0.248 -1.072,-1.015 -2.342,-2.105 -3.722,-3.059 -0.498,-0.353 -1.012,-0.677 -1.528,-0.984 -0.516,-0.307 -1.04,-0.579 -1.554,-0.832 -0.518,-0.241 -1.029,-0.453 -1.524,-0.633 -0.495,-0.175 -0.975,-0.31 -1.422,-0.423 -0.45,-0.097 -0.866,-0.18 -1.24,-0.221 -0.374,-0.061 -0.703,-0.054 -0.975,-0.079 -0.543,-0.002 -0.857,0.008 -0.857,0.008 0,0 0.306,-0.055 0.852,-0.13 0.274,-0.015 0.608,-0.069 0.993,-0.061 0.387,-0.014 0.821,0.009 1.298,0.042 0.474,0.05 0.988,0.118 1.527,0.227 0.538,0.11 1.099,0.257 1.675,0.43 0.571,0.184 1.159,0.389 1.742,0.632 0.582,0.243 1.169,0.503 1.74,0.796 2.301,1.148 4.414,2.627 5.934,3.815 0.76,0.597 1.375,1.121 1.803,1.5 0.153,0.14 0.274,0.249 0.378,0.343 l 0.665,-0.307 -0.057,2.109 c -0.03,1.135 -0.057,2.262 -0.115,3.392 -0.051,1.13 -0.12,2.259 -0.212,3.389 -0.106,1.13 -0.188,2.259 -0.344,3.39 -0.078,0.564 -0.153,1.129 -0.252,1.692 -0.054,0.28 -0.109,0.561 -0.176,0.842 -0.064,0.276 -0.134,0.564 -0.27,0.817 0.043,-0.28 0.018,-0.56 0.004,-0.84 -0.017,-0.28 -0.046,-0.56 -0.075,-0.84 -0.056,-0.56 -0.115,-1.12 -0.183,-1.678 l -0.393,-3.353 c -0.173,-1.471 -0.331,-2.945 -0.485,-4.416 -2.11,1.317 -4.25,2.583 -6.419,3.796 l -2.098,1.152 -2.117,1.119 c -1.419,0.732 -2.845,1.453 -4.293,2.138 -0.718,0.351 -1.455,0.674 -2.184,1.009 -0.741,0.334 -1.46,0.636 -2.243,0.962 -0.39,0.157 -0.786,0.317 -1.156,0.442 l -0.283,0.099 -0.18,0.065 -0.165,0.052 c -0.219,0.074 -0.446,0.133 -0.676,0.184 -0.915,0.197 -1.939,0.277 -2.979,-0.089 -0.513,-0.184 -1.023,-0.506 -1.398,-0.963 -0.382,-0.45 -0.592,-1.019 -0.642,-1.549 -0.092,-1.074 0.285,-1.959 0.717,-2.709 0.446,-0.755 1.031,-1.366 1.631,-1.926 0.44,-0.4 0.915,-0.75 1.399,-1.079 m 70.689,5.982 c -0.239,-6.356 -0.553,-11.024 -0.553,-11.024 -0.053,-0.784 -0.096,-1.569 -0.127,-2.352 -0.027,-0.783 -0.066,-1.568 -0.081,-2.35 l -0.05,-2.348 c -0.02,-0.783 -0.01,-1.564 -0.017,-2.347 -0.014,-1.565 -0.009,-3.127 0.013,-4.69 0.021,-1.435 0.052,-2.87 0.093,-4.305 -0.366,-0.687 -0.752,-1.399 -1.147,-2.093 l -1.351,-2.323 c -0.918,-1.54 -1.864,-3.067 -2.836,-4.575 l -1.474,-2.255 -1.516,-2.226 c -1.023,-1.474 -2.066,-2.936 -3.134,-4.381 -0.544,-0.714 -1.07,-1.443 -1.626,-2.15 l -1.658,-2.127 c -0.57,-0.694 -1.121,-1.409 -1.702,-2.095 -0.575,-0.693 -1.147,-1.389 -1.733,-2.074 -0.581,-0.692 -1.186,-1.359 -1.784,-2.037 -0.604,-0.671 -1.196,-1.359 -1.82,-2.013 -0.037,-0.04 -0.076,-0.081 -0.113,-0.121 -0.503,-0.406 -1.029,-0.799 -1.553,-1.183 0.075,0.283 0.15,0.568 0.22,0.852 0.263,1.083 0.516,2.169 0.723,3.269 -0.514,-0.993 -0.997,-1.996 -1.481,-2.997 l -1.429,-3.004 c -0.463,-1.004 -0.931,-2.004 -1.42,-2.981 -0.247,-0.488 -0.482,-0.978 -0.735,-1.443 -0.124,-0.233 -0.253,-0.46 -0.381,-0.663 -0.035,-0.057 -0.07,-0.11 -0.102,-0.158 l -0.363,-0.094 -0.571,-0.105 c -0.393,-0.052 -0.788,-0.114 -1.2,-0.139 -0.404,-0.04 -0.827,-0.059 -1.242,-0.083 -0.422,-0.009 -0.843,0.034 -1.265,0.037 l -1.248,0.02 c -0.042,0.037 -0.093,0.082 -0.142,0.138 -0.247,0.264 -0.517,0.596 -0.889,0.974 -0.2,0.192 -0.386,0.392 -0.803,0.644 -0.109,0.061 -0.241,0.125 -0.41,0.181 -0.095,0.035 -0.283,-0.19 -0.411,-0.176 L 198.339,117 h -0.02 l -0.139,0.269 -0.025,0.129 c -0.282,-0.002 -0.528,0.004 -0.741,-0.064 -0.826,-0.307 -1.194,-0.664 -1.559,-0.961 -0.341,-0.301 -0.645,-0.41 -0.81,-0.504 -0.015,-0.009 -0.024,0.131 -0.033,0.131 h -0.514 c -0.424,0 -0.848,-0.153 -1.272,-0.14 -0.424,0.016 -0.849,-0.069 -1.273,-0.046 -0.423,0.014 -0.849,-0.008 -1.271,0.019 -0.425,0.017 -0.847,0.026 -1.268,0.058 l -0.77,0.059 c -0.444,0.729 -0.891,1.452 -1.342,2.175 l -1.73,2.69 c -0.292,0.448 -0.594,0.887 -0.891,1.331 -0.148,0.217 -0.293,0.436 -0.44,0.654 l -0.003,0.008 -0.003,0.002 c -0.149,0.222 -0.3,0.445 -0.455,0.664 -0.612,0.879 -1.227,1.755 -1.88,2.612 0.272,-0.773 0.567,-1.532 0.867,-2.288 -0.102,0.072 -0.205,0.14 -0.304,0.215 l -0.455,0.33 c -0.486,0.354 -0.946,0.694 -1.404,1.061 -0.036,0.039 -0.072,0.076 -0.107,0.116 -0.584,0.622 -1.146,1.267 -1.705,1.91 -0.572,0.632 -1.12,1.284 -1.674,1.927 l -1.615,1.972 c -0.538,0.655 -1.056,1.327 -1.58,1.993 -0.521,0.668 -1.028,1.347 -1.537,2.023 -0.506,0.676 -1,1.364 -1.491,2.051 -0.493,0.687 -0.974,1.382 -1.448,2.083 -0.478,0.695 -0.946,1.399 -1.407,2.107 -0.919,1.417 -1.813,2.849 -2.671,4.302 -0.434,0.724 -0.854,1.456 -1.263,2.193 -0.414,0.734 -0.82,1.474 -1.215,2.219 -0.389,0.747 -0.777,1.494 -1.151,2.246 -0.336,0.677 -0.664,1.38 -0.961,2.046 0.057,1.506 0.103,3.012 0.142,4.518 0.037,1.62 0.059,3.241 0.063,4.863 0.002,0.811 0.02,1.621 0.008,2.433 l -0.024,2.436 c -0.007,0.812 -0.039,1.624 -0.057,2.437 -0.023,0.813 -0.056,1.626 -0.101,2.441 -0.034,-0.179 -0.063,-0.359 -0.096,-0.538 -0.009,0.028 -0.018,0.057 -0.03,0.091 -0.049,0.148 -0.102,0.386 -0.178,0.675 -0.146,0.587 -0.341,1.43 -0.57,2.442 -0.392,1.791 -0.898,4.111 -1.418,6.491 -0.055,0.562 -0.132,1.384 -0.221,2.407 l 0.533,0.28 -0.65,1.114 c -0.28,3.434 -0.62,8.366 -0.755,13.4 l 13.599,25.484 c 1.305,0.206 2.642,0.313 3.986,0.295 7.394,-8.165 19.703,-24.044 22,-41.428 3.392,19.021 19.203,40.438 25.327,40.438 4.717,-1.079 8.969,-3.491 11.239,-6.67 2.73,-3.823 2.578,-21.685 2.135,-33.764 l 5.989,10.268 0.003,0.004 -0.003,-0.007 -5.989,-10.271 -0.169,-0.291 z M 160.277,173.86 c -0.291,0.533 -0.698,1.3 -1.178,2.224 -0.949,1.852 -2.331,4.323 -3.595,6.793 -0.13,0.254 -0.504,0.511 -0.504,0.765 v -0.002 c 0,-0.034 0.116,-0.064 0.115,-0.097 0.001,-0.156 0.045,-0.312 0.056,-0.484 0.038,-0.349 0.071,-0.715 0.138,-1.104 0.067,-0.39 0.129,-0.794 0.219,-1.206 0.089,-0.411 0.188,-0.83 0.278,-1.249 0.109,-0.418 0.223,-0.836 0.329,-1.249 0.106,-0.413 0.219,-0.818 0.341,-1.206 0.241,-0.777 0.443,-1.515 0.659,-2.131 0.414,-1.242 0.69,-2.07 0.69,-2.07 0,0 -0.307,-0.65 -0.567,-1.67 -0.131,-0.508 -0.243,-1.109 -0.277,-1.738 -0.019,-0.315 -0.016,-0.638 0.017,-0.955 0.021,-0.273 0.082,-0.537 0.153,-0.791 0.123,-0.229 0.245,-0.461 0.384,-0.681 0.148,-0.231 0.29,-0.467 0.433,-0.703 0.035,-0.035 0.068,-0.071 0.104,-0.103 0.193,-0.162 0.394,-0.299 0.606,-0.405 0.202,-0.115 0.424,-0.193 0.619,-0.266 0.074,-0.02 0.142,-0.042 0.21,-0.062 0.044,0.342 0.088,0.685 0.14,1.027 l 0.351,2.41 c 0.115,0.804 0.256,1.605 0.383,2.407 0.099,0.605 0.211,1.207 0.323,1.812 -0.021,0.033 -0.043,0.065 -0.077,0.118 -0.092,0.14 -0.199,0.348 -0.35,0.616 m -3.45,0.927 c 0.598,-1.166 0.998,-1.943 0.998,-1.943 0,0 -0.458,-0.549 -0.982,-1.507 -0.198,-0.363 -0.404,-0.79 -0.585,-1.271 -0.079,0.141 -0.158,0.28 -0.239,0.424 l -0.245,0.438 c -0.092,0.169 -0.186,0.336 -0.28,0.503 -0.257,0.456 -0.5,0.887 -0.702,1.363 l -0.025,0.054 -0.674,1.896 c -0.126,0.321 -0.218,0.668 -0.308,1.015 l -0.278,1.038 -0.278,1.037 -0.138,0.519 -0.07,0.259 c -0.007,0.029 -0.034,0.116 -0.024,0.099 l -0.027,0.131 -0.434,2.08 c -0.142,0.694 -0.248,1.391 -0.374,2.086 -0.133,0.693 -0.2,1.393 -0.304,2.085 -0.104,0.695 -0.144,1.389 -0.219,2.082 -0.035,0.635 -0.081,1.271 -0.087,1.9 l 0.485,0.907 c 0.082,-0.161 0.163,-0.323 0.25,-0.496 l 1.702,-3.652 c -0.023,-0.024 -0.047,-0.046 -0.07,-0.072 -0.04,-0.049 -0.064,-0.097 -0.096,-0.15 -0.061,-0.102 -0.119,-0.211 -0.172,-0.326 -0.095,-0.22 -0.113,-0.407 -0.164,-0.632 -0.038,-0.215 -0.018,-0.391 -0.026,-0.601 -0.01,-0.213 0.02,-0.4 0.047,-0.595 0.029,-0.196 0.048,-0.406 0.091,-0.604 0.1,-0.386 0.176,-0.809 0.31,-1.21 0.135,-0.403 0.252,-0.826 0.41,-1.236 0.157,-0.408 0.316,-0.822 0.476,-1.237 0.175,-0.405 0.35,-0.811 0.523,-1.208 0.17,-0.4 0.344,-0.788 0.526,-1.157 0.361,-0.741 0.673,-1.439 0.983,-2.019"
               style="fill:#ecc19c;fill-opacity:1;fill-rule:nonzero;stroke:none"
               id="path4391" /><path
               d="m 200.299,290.312 -1.121,0.694 -2.775,-34.807 0.202,-0.169 15.584,11.465 z m -25.436,-16.031 3.816,-3.203 9.738,23.541 4.87,16.755 31.484,-32.86 1.11,-0.949 5.789,4.259 -41.449,41.182 z m 73.242,-15.722 -11.811,10.101 -3.703,12.249 32.229,-32.022 c -0.376,-0.246 -0.725,-0.528 -1.048,-0.839 z"
               style="fill:#0071bc;fill-opacity:1;fill-rule:nonzero;stroke:none"
               id="path4393" /><path
               d="m 265.427,164.932 -34.395,113.783 -42.503,-31.266 31.565,9.717 z"
               style="fill:#39b54a;fill-opacity:1;fill-rule:nonzero;stroke:none"
               id="path4395" /><path
               d="m 265.427,164.932 -45.333,92.234 -31.565,-9.717 42.503,31.266 z m 3.953,-12.676 c -2.393,0 -4.339,1.948 -4.339,4.341 0,2.393 1.946,4.34 4.339,4.34 2.393,0 4.34,-1.947 4.34,-4.34 0,-2.393 -1.947,-4.341 -4.34,-4.341 m -28.315,13.191 c -0.935,-1.779 -1.991,-3.521 -3.133,-5.176 -0.073,0.636 -0.143,1.273 -0.22,1.91 0.153,0.084 0.306,0.178 0.454,0.269 l 0.257,0.164 c 0.276,0.196 0.59,0.417 0.881,0.7 0.342,0.31 0.667,0.685 0.933,1.079 0.285,0.413 0.523,0.895 0.686,1.382 0.151,0.447 0.245,0.934 0.287,1.524 0.019,0.532 -0.007,0.989 -0.074,1.374 -0.024,0.159 -0.055,0.32 -0.095,0.494 l 0.089,0.211 c 0.248,0.572 0.511,1.189 0.744,1.817 l 0.705,1.826 0.867,2.445 c 0.139,0.391 0.28,0.784 0.422,1.219 l 0.561,1.83 c 0.148,0.459 0.272,0.923 0.392,1.371 l 0.144,0.528 c 0.205,0.733 0.36,1.349 0.487,1.927 l 0.061,0.262 c 0.129,0.55 0.262,1.119 0.359,1.683 0.131,0.668 0.256,1.326 0.337,1.971 0.111,0.677 0.176,1.358 0.233,2.026 0.03,0.25 0.039,0.507 0.047,0.765 0.003,0.104 0.006,0.208 0.012,0.309 0.021,0.385 0.023,0.764 0.009,1.099 -0.006,0.356 -0.018,0.741 -0.061,1.108 -0.023,0.348 -0.077,0.731 -0.158,1.156 -0.028,0.203 -0.078,0.393 -0.123,0.563 l -0.023,0.093 c -0.058,0.238 -0.126,0.463 -0.214,0.689 -0.071,0.211 -0.171,0.445 -0.306,0.713 -0.051,0.106 -0.125,0.232 -0.199,0.352 l -0.041,0.064 c -0.049,0.081 -0.122,0.189 -0.215,0.303 l -0.055,0.067 c -0.017,0.025 -0.076,0.099 -0.18,0.206 l -1.081,1.054 0.191,6.788 1.328,-2.703 c 0.471,-1.918 0.831,-3.884 1.071,-5.849 l 1.702,0.177 3.051,-6.237 H 247 v -0.134 c 0,-2.039 -0.155,-4.09 -0.396,-6.096 l 8.247,-0.996 4.042,-8.296 -13.507,3.311 c -0.481,-1.96 -1.098,-3.912 -1.815,-5.803 l 20.298,-7.699 1.03,-2.099 0.356,-0.476 c -1.052,-1.056 -1.704,-2.51 -1.704,-4.115 0,-1.382 0.483,-2.65 1.289,-3.65 z m -25.979,71.285 -30.323,7.333 11.025,3.394 c 6.412,-3.556 13.094,-7.272 19.298,-10.727 m -8.347,7.079 -7.504,4.709 1.388,0.427 z m 21.3,-12.411 1.691,-0.409 -2.357,1.311 -14.977,20.269 6.588,2.029 16.067,-32.688 z m -53.637,-4.872 c -0.661,0.719 -1.272,1.365 -1.829,1.942 0.557,-0.577 1.168,-1.223 1.829,-1.942 m 8.518,10.35 -2.061,1.465 0.885,-0.224 5.262,-1.335 24.545,-6.224 -7.687,-8.565 -20.659,14.681 z m -24.242,-71.08 c -0.213,0.106 -0.414,0.242 -0.606,0.405 -0.037,0.032 -0.069,0.069 -0.104,0.103 -0.144,0.236 -0.286,0.472 -0.434,0.703 -0.138,0.221 -0.26,0.451 -0.384,0.681 -0.07,0.254 -0.13,0.517 -0.151,0.791 -0.035,0.317 -0.038,0.639 -0.019,0.955 0.034,0.629 0.147,1.23 0.278,1.738 0.259,1.02 0.567,1.67 0.567,1.67 0,0 -0.458,-0.549 -0.982,-1.507 -0.198,-0.363 -0.404,-0.79 -0.585,-1.27 -0.08,0.139 -0.159,0.279 -0.238,0.423 l -0.247,0.438 c -0.092,0.169 -0.185,0.336 -0.28,0.503 -0.257,0.456 -0.499,0.887 -0.701,1.362 l -0.025,0.055 -0.674,1.896 c -0.127,0.321 -0.218,0.668 -0.309,1.015 l -0.277,1.038 -0.278,1.037 -0.139,0.519 -0.069,0.259 c -0.007,0.029 -0.034,0.117 -0.024,0.098 l -0.028,0.132 -0.433,2.079 c -0.143,0.695 -0.249,1.392 -0.374,2.087 -0.133,0.693 -0.201,1.392 -0.305,2.085 -0.104,0.694 -0.144,1.39 -0.219,2.082 -0.034,0.636 -0.081,1.271 -0.087,1.9 l 0.485,0.908 c 0.082,-0.162 0.163,-0.324 0.251,-0.497 l 1.701,-3.653 c -0.023,-0.022 -0.047,-0.046 -0.07,-0.071 -0.039,-0.05 -0.064,-0.097 -0.096,-0.15 -0.06,-0.102 -0.118,-0.212 -0.172,-0.326 -0.095,-0.219 -0.113,-0.408 -0.163,-0.632 -0.038,-0.214 -0.019,-0.391 -0.026,-0.601 -0.01,-0.213 0.019,-0.4 0.047,-0.596 0.029,-0.195 0.047,-0.405 0.09,-0.603 0.101,-0.386 0.176,-0.809 0.31,-1.209 0.135,-0.404 0.253,-0.828 0.41,-1.237 0.158,-0.408 0.317,-0.822 0.477,-1.238 0.175,-0.405 0.351,-0.81 0.523,-1.208 0.17,-0.399 0.343,-0.787 0.526,-1.156 0.361,-0.741 0.672,-1.439 0.982,-2.019 0.599,-1.166 0.999,-1.943 0.999,-1.943 0,0 -0.275,0.828 -0.69,2.069 -0.216,0.617 -0.417,1.356 -0.656,2.132 -0.124,0.389 -0.235,0.793 -0.341,1.206 -0.107,0.412 -0.215,0.83 -0.325,1.248 -0.091,0.419 -0.182,0.838 -0.271,1.25 -0.09,0.412 -0.137,0.816 -0.203,1.206 -0.068,0.389 -0.072,0.754 -0.109,1.105 -0.012,0.172 -0.114,0.327 -0.115,0.483 0.001,0.033 -0.115,0.063 -0.115,0.097 v 0.003 c 0,-0.255 0.375,-0.512 0.503,-0.767 1.264,-2.469 2.588,-4.94 3.538,-6.793 0.48,-0.923 0.914,-1.69 1.206,-2.224 0.151,-0.267 0.274,-0.475 0.365,-0.615 0.034,-0.052 0.064,-0.085 0.085,-0.119 -0.112,-0.603 -0.221,-1.206 -0.32,-1.811 -0.127,-0.802 -0.266,-1.603 -0.382,-2.407 l -0.349,-2.41 c -0.052,-0.342 -0.096,-0.684 -0.14,-1.027 -0.068,0.02 -0.136,0.042 -0.21,0.062 -0.195,0.074 -0.416,0.15 -0.618,0.266 m 48.416,-49.89 c 0.05,0.021 0.104,0.039 0.15,0.047 l 0.067,0.01 -0.213,-0.056 z m -0.292,-0.199 c -0.01,-0.009 0.019,0.03 0.038,0.044 0.003,0.001 0.004,0.003 0.006,0.003 -0.024,-0.031 -0.049,-0.056 -0.044,-0.047 m 21.366,27.688 -1.515,-2.226 c -1.024,-1.474 -2.068,-2.936 -3.134,-4.381 -0.545,-0.714 -1.072,-1.443 -1.626,-2.15 l -1.659,-2.127 c -0.571,-0.694 -1.121,-1.409 -1.702,-2.095 -0.575,-0.693 -1.146,-1.389 -1.734,-2.074 -0.579,-0.692 -1.186,-1.36 -1.782,-2.037 -0.605,-0.671 -1.197,-1.359 -1.821,-2.013 -0.038,-0.041 -0.076,-0.081 -0.114,-0.121 -0.503,-0.405 -1.027,-0.799 -1.552,-1.183 0.075,0.284 0.151,0.568 0.219,0.852 0.264,1.083 0.517,2.169 0.724,3.269 -0.514,-0.993 -0.997,-1.996 -1.481,-2.997 l -1.428,-3.004 c -0.464,-1.003 -0.933,-2.004 -1.42,-2.981 -0.248,-0.489 -0.483,-0.979 -0.736,-1.443 -0.125,-0.233 -0.253,-0.461 -0.381,-0.663 -0.035,-0.057 -0.07,-0.11 -0.103,-0.158 l -0.361,-0.094 -0.572,-0.105 c -0.393,-0.052 -0.788,-0.114 -1.2,-0.14 -0.403,-0.039 -0.828,-0.058 -1.243,-0.082 -0.421,-0.009 -0.843,0.034 -1.265,0.037 l -1.247,0.02 c -0.043,0.037 -0.093,0.082 -0.142,0.138 -0.247,0.264 -0.518,0.596 -0.89,0.974 -0.199,0.192 -0.386,0.392 -0.802,0.644 -0.109,0.061 -0.241,0.125 -0.41,0.181 -0.096,0.035 -0.283,-0.19 -0.412,-0.176 L 198.339,117 h -0.021 l -0.138,0.269 -0.025,0.129 c -0.283,-0.002 -0.529,0.004 -0.741,-0.064 -0.827,-0.308 -1.194,-0.664 -1.559,-0.961 -0.341,-0.301 -0.646,-0.41 -0.81,-0.504 -0.015,-0.01 -0.024,0.131 -0.033,0.131 h -0.514 c -0.425,0 -0.849,-0.153 -1.273,-0.14 -0.424,0.016 -0.849,-0.069 -1.272,-0.046 -0.424,0.014 -0.849,-0.008 -1.271,0.019 -0.425,0.016 -0.847,0.025 -1.269,0.057 l -0.769,0.06 c -0.444,0.729 -0.891,1.451 -1.342,2.175 l -1.73,2.69 c -0.292,0.448 -0.594,0.887 -0.892,1.331 -0.148,0.217 -0.293,0.436 -0.439,0.654 l -0.003,0.007 -0.004,0.004 c -0.149,0.221 -0.298,0.443 -0.454,0.663 -0.613,0.879 -1.228,1.755 -1.881,2.612 0.272,-0.773 0.568,-1.532 0.868,-2.288 -0.101,0.072 -0.204,0.14 -0.305,0.215 l -0.454,0.33 c -0.486,0.354 -0.946,0.694 -1.404,1.061 -0.036,0.039 -0.073,0.076 -0.108,0.116 -0.584,0.623 -1.145,1.266 -1.704,1.91 -0.572,0.632 -1.12,1.284 -1.674,1.927 l -1.615,1.971 c -0.539,0.656 -1.056,1.328 -1.581,1.994 -0.52,0.668 -1.026,1.347 -1.536,2.023 -0.507,0.676 -1,1.363 -1.49,2.051 -0.494,0.686 -0.976,1.382 -1.449,2.083 -0.479,0.695 -0.947,1.398 -1.406,2.107 -0.92,1.417 -1.815,2.85 -2.672,4.302 -0.433,0.724 -0.854,1.456 -1.264,2.193 -0.413,0.735 -0.819,1.474 -1.215,2.219 -0.388,0.747 -0.777,1.493 -1.151,2.245 -0.336,0.678 -0.663,1.381 -0.961,2.047 0.058,1.506 0.104,3.012 0.142,4.518 0.038,1.62 0.06,3.24 0.064,4.863 0.002,0.811 0.019,1.621 0.007,2.433 l -0.023,2.436 c -0.007,0.812 -0.039,1.624 -0.057,2.437 -0.023,0.813 -0.057,1.626 -0.1,2.441 -0.035,-0.18 -0.064,-0.359 -0.097,-0.538 -0.009,0.027 -0.019,0.057 -0.031,0.091 -0.048,0.147 -0.102,0.386 -0.178,0.675 -0.145,0.587 -0.341,1.429 -0.568,2.442 -0.393,1.791 -0.9,4.11 -1.42,6.491 -0.054,0.562 -0.132,1.384 -0.22,2.407 l 0.532,0.279 -0.65,1.115 c -0.28,3.434 -0.618,8.366 -0.754,13.399 l 13.598,25.485 c 1.305,0.205 2.644,0.312 3.987,0.295 7.393,-8.165 19.703,-24.044 22,-41.427 3.392,19.02 19.203,40.437 25.326,40.437 4.719,-1.08 9.113,-3.492 11.385,-6.67 2.729,-3.824 2.279,-21.685 2.279,-33.763 v -0.007 l -0.313,-0.291 0.083,-0.081 c -0.239,-6.356 -0.588,-11.024 -0.588,-11.024 l 3.321,9.405 c 0.008,-0.029 0.005,-0.056 0.012,-0.087 0.029,-0.119 0.062,-0.242 0.067,-0.401 0.015,-0.151 0.027,-0.311 0.043,-0.474 -0.002,-0.177 -0.006,-0.357 -0.007,-0.544 0.013,-0.371 -0.061,-0.784 -0.091,-1.204 -0.044,-0.421 -0.132,-0.861 -0.201,-1.308 -0.072,-0.448 -0.189,-0.901 -0.284,-1.357 -0.09,-0.457 -0.218,-0.909 -0.335,-1.355 -0.122,-0.444 -0.225,-0.888 -0.356,-1.309 -0.262,-0.841 -0.487,-1.636 -0.713,-2.307 -0.454,-1.344 -0.758,-2.239 -0.758,-2.239 0,0 0.427,0.845 1.067,2.113 0.321,0.636 0.657,1.393 1.039,2.199 0.192,0.403 0.359,0.833 0.545,1.265 0.182,0.432 0.376,0.869 0.536,1.322 0.162,0.452 0.345,0.896 0.49,1.352 0.136,0.457 0.294,0.9 0.406,1.347 0.1,0.455 0.237,0.877 0.289,1.318 0.032,0.218 0.066,0.431 0.098,0.635 0.011,0.216 0.021,0.426 0.032,0.627 0.018,0.198 -0.002,0.408 -0.02,0.608 -0.015,0.199 -0.034,0.389 -0.096,0.591 -0.048,0.183 -0.092,0.351 -0.184,0.527 l 2.694,5.785 c 0.003,-0.055 0.012,-0.108 0.014,-0.165 0.012,-0.297 0.045,-0.592 0.035,-0.895 0.002,-0.606 0.004,-1.213 -0.04,-1.828 -0.02,-0.613 -0.08,-1.229 -0.142,-1.846 -0.049,-0.619 -0.142,-1.237 -0.227,-1.856 -0.076,-0.619 -0.178,-1.239 -0.291,-1.856 -0.111,-0.619 -0.205,-1.242 -0.343,-1.857 l -0.386,-1.854 -0.414,-1.854 -0.423,-1.864 -0.276,-1.075 -0.267,-0.695 c -0.162,-0.436 -0.339,-0.862 -0.517,-1.278 -0.114,0.257 -0.233,0.501 -0.351,0.716 -0.525,0.958 -0.982,1.507 -0.982,1.507 0,0 0.308,-0.65 0.567,-1.67 0.128,-0.5 0.239,-1.087 0.275,-1.707 l -0.061,-0.14 0.072,-0.267 c 0.001,-0.193 -0.005,-0.387 -0.027,-0.579 -0.023,-0.317 -0.098,-0.623 -0.183,-0.913 -0.099,-0.284 -0.216,-0.549 -0.371,-0.779 -0.153,-0.226 -0.327,-0.424 -0.52,-0.586 -0.191,-0.163 -0.393,-0.299 -0.605,-0.405 -0.203,-0.116 -0.424,-0.192 -0.619,-0.266 -0.136,-0.038 -0.258,-0.075 -0.378,-0.107 -0.027,0.214 -0.052,0.427 -0.083,0.64 l -0.326,2.325 c -0.106,0.775 -0.24,1.549 -0.359,2.324 -0.122,0.775 -0.258,1.548 -0.402,2.321 -0.053,-0.784 -0.097,-1.569 -0.127,-2.351 -0.028,-0.785 -0.068,-1.569 -0.082,-2.351 l -0.049,-2.349 c -0.021,-0.782 -0.012,-1.564 -0.019,-2.346 -0.013,-1.565 -0.007,-3.127 0.013,-4.69 0.023,-1.435 0.054,-2.87 0.095,-4.305 -0.366,-0.688 -0.753,-1.399 -1.148,-2.093 l -1.351,-2.323 c -0.918,-1.54 -1.865,-3.067 -2.835,-4.575 z m -96.089,13.59 c -0.263,0.223 -0.545,0.419 -0.836,0.603 3.2,10.488 9.014,29.205 15.295,49.114 9.998,31.691 16.991,53.123 18.755,57.509 2.899,-1.505 12.687,-6.889 24.316,-13.329 l -8.176,-6.014 -2.205,0.534 -1.894,-3.549 -0.18,-0.133 0.131,0.041 z m -4.668,-11.424 c -3.182,0 -5.772,2.59 -5.772,5.773 0,3.183 2.59,5.772 5.772,5.772 3.111,0 5.74,-2.712 5.74,-5.924 0,-3.152 -2.521,-5.621 -5.74,-5.621 m 35.494,135.046 31.345,-26.312 -1.945,-1.429 -25.464,15.976 -0.937,-2.625 c -0.464,0.234 -0.755,0.575 -0.839,0.594 L 164.942,267 h -0.124 c -1.03,0 -1.221,-0.158 -7.362,-18.93 -4.091,-12.505 -9.213,-28.595 -12.763,-39.843 -0.788,-2.494 -2.1,-6.706 -3.671,-11.698 l -2.862,-8.046 z m 49.779,-9.46 -6.901,13.241 15.363,-10.307 -5.006,-3.683 c -1.144,0.276 -2.297,0.521 -3.456,0.749 m -16.281,-14.95 2.774,34.807 1.122,-0.694 11.89,-22.817 -15.585,-11.465 z m 0.558,39.187 -2.805,-35.181 -10.218,9.834 10.568,36.366 22.356,-23.333 z m -6.74,27.62 41.449,-41.182 -5.789,-4.259 -1.11,0.949 -31.484,32.86 -4.87,-16.755 -9.739,-23.541 -3.815,3.203 z m 74.6,-74.119 c -0.376,-0.247 -0.726,-0.528 -1.048,-0.839 l -15.668,10.51 -11.811,10.102 -3.702,12.249 z m 3.9,-0.357 c 3.09,0 5.603,-2.514 5.603,-5.604 0,-3.091 -2.513,-5.605 -5.603,-5.605 -3.092,0 -5.606,2.514 -5.606,5.605 0,3.09 2.514,5.604 5.606,5.604 m -6.28,-2.232 -0.441,0.378 0.475,-0.319 c -0.012,-0.02 -0.023,-0.039 -0.034,-0.059 m -3.344,-1.707 -12.238,-10.885 -2.765,9.153 7.841,8.872 c -2.523,2.229 -5.205,4.326 -7.973,6.234 l -3.084,-4.473 -2.786,9.224 8.139,-5.461 15.904,-11.607 c -0.35,-0.839 -0.544,-1.758 -0.544,-2.722 0,-0.509 0.055,-1.003 0.157,-1.482 -0.861,1.07 -1.743,2.124 -2.651,3.147 m -0.986,-48.138 21.55,2.644 c -0.408,3.348 -1.025,6.709 -1.835,9.975 l -21.885,-5.415 -2.142,7.088 20.995,8.011 c -1.2,3.148 -2.606,6.256 -4.182,9.236 l -18.993,-10.032 -2.286,7.562 16.021,11.118 c -10e-4,0.002 -0.002,0.004 -0.003,0.006 1.003,-0.541 2.15,-0.849 3.37,-0.849 3.93,0 7.129,3.198 7.129,7.129 0,3.931 -3.199,7.129 -7.129,7.129 -0.627,0 -1.234,-0.09 -1.814,-0.243 l -77.665,77.164 -15.795,-50.111 -2.911,1.048 -9.219,7.739 -6.415,-23.89 c -2.135,-1.219 -4.226,-2.532 -6.238,-3.927 l 3.737,-5.391 -2.891,-10.764 -8.798,9.902 c -2.513,-2.233 -4.917,-4.642 -7.144,-7.16 l 13.477,-11.923 -2.186,-8.14 -17.528,12.095 c -1.914,-2.773 -3.677,-5.69 -5.24,-8.67 l 20.763,-10.892 -1.898,-7.067 -23.022,8.71 c -1.194,-3.155 -2.205,-6.416 -3.007,-9.694 l 24.178,-5.911 -1.864,-6.942 -23.884,2.882 C 112.964,195.573 113,192.207 113,188.866 V 188 h 22.247 l -1.995,-7.15 -20.11,-2.295 c 0.406,-3.349 1.02,-6.63 1.825,-9.894 l 16.015,3.982 -2.598,-9.657 -10.395,-3.944 c 0.715,-1.881 1.512,-3.74 2.367,-5.575 -0.205,-0.677 -0.318,-1.389 -0.318,-2.133 0,-4.065 3.307,-7.373 7.373,-7.373 4.117,0 7.341,3.173 7.341,7.223 0,1.525 -0.449,2.945 -1.214,4.133 l 0.362,0.678 17.867,9.414 c -0.942,1.789 -1.784,3.653 -2.501,5.536 l -9.269,-3.526 4.596,8.616 2.865,0.705 c -0.271,1.103 -0.504,2.222 -0.701,3.349 l 2.102,3.939 c 0.021,-0.091 0.044,-0.184 0.065,-0.276 0.105,-0.468 0.214,-0.95 0.35,-1.419 0.067,-0.24 0.131,-0.481 0.195,-0.723 0.125,-0.467 0.25,-0.935 0.392,-1.4 l 0.67,-2.189 c 0.036,-0.121 0.052,-0.162 0.077,-0.225 l 1.019,-2.761 c 0.115,-0.32 0.258,-0.718 0.441,-1.086 l 0.906,-1.959 c 0.234,-0.551 0.515,-1.051 0.787,-1.535 0.09,-0.159 0.18,-0.318 0.276,-0.494 l 0.244,-0.437 c 0.177,-0.318 0.357,-0.642 0.556,-0.964 -0.055,-0.375 -0.073,-0.791 -0.055,-1.297 0.04,-0.553 0.135,-1.039 0.284,-1.481 0.166,-0.5 0.397,-0.967 0.684,-1.385 0.271,-0.4 0.594,-0.774 0.912,-1.06 0.317,-0.306 0.63,-0.527 0.943,-0.749 l 0.217,-0.136 c 0.091,-0.056 0.185,-0.115 0.279,-0.171 -0.122,-0.969 -0.244,-1.941 -0.352,-2.915 -0.093,-0.845 -0.176,-1.692 -0.264,-2.538 -0.9,1.093 -1.761,2.224 -2.561,3.38 l -27.511,-19.052 c 1.912,-2.762 4.015,-5.439 6.249,-7.955 l 23.544,20.898 -0.005,-0.052 0.181,-0.502 c 0.334,-0.924 0.691,-1.755 1.029,-2.525 0.352,-0.803 0.732,-1.616 1.128,-2.416 0.148,-0.298 0.299,-0.598 0.452,-0.898 L 140.82,126.052 c 2.519,-2.231 5.198,-4.329 7.963,-6.24 l 14.873,21.531 c 0.411,-0.643 0.826,-1.274 1.24,-1.876 0.446,-0.646 0.978,-1.407 1.529,-2.156 0.574,-0.772 1.097,-1.457 1.6,-2.095 0.053,-0.068 0.109,-0.135 0.164,-0.203 l -10.741,-20.444 c 2.988,-1.567 6.099,-2.969 9.252,-4.163 l 6.991,18.457 c 0.317,-0.316 0.636,-0.623 0.951,-0.921 0.176,-0.166 0.352,-0.332 0.546,-0.519 l 0.457,-0.416 c 0.494,-0.453 0.988,-0.904 1.505,-1.351 0.658,-0.552 1.338,-1.123 2.017,-1.652 0.356,-0.294 0.722,-0.569 1.087,-0.839 l -3.867,-15.769 c 3.268,-0.8 6.623,-1.41 9.975,-1.811 l 0.864,7.233 0.295,-0.069 c 0.513,-0.119 0.964,-0.21 1.416,-0.286 0.457,-0.079 0.914,-0.15 1.357,-0.209 0.321,-0.048 0.644,-0.08 0.966,-0.11 l 0.411,-0.042 c 0.351,-0.04 0.702,-0.061 1.055,-0.082 l 0.327,-0.019 c 0.298,-0.022 0.597,-0.027 0.895,-0.032 0.039,-10e-4 0.076,-0.002 0.115,-0.002 l 2.051,-0.018 c 0.076,0.036 0.143,0.074 0.202,0.109 0.047,0.018 0.085,0.041 0.128,0.06 l 0.004,-7.129 c 3.369,0.002 6.762,0.205 10.085,0.608 l -0.79,6.551 c 0.306,0.059 0.617,0.124 0.948,0.2 l 0.644,0.218 0.665,0.287 v 0.004 c 0,0.06 0.443,0.141 0.556,0.216 0.103,0.067 0.263,0.144 0.388,0.253 0.059,0.055 0.233,0.194 0.301,0.289 0.129,0.157 0.218,0.274 0.291,0.392 0.12,0.196 0.218,0.368 0.302,0.541 0.146,0.306 0.272,0.595 0.391,0.889 0.259,0.659 0.449,1.169 0.607,1.655 0.311,0.937 0.633,1.965 1.016,3.256 l 0.141,0.521 c 0.103,0.072 0.204,0.143 0.295,0.212 l 0.122,0.089 c 0.199,0.145 0.4,0.294 0.6,0.442 l 3.495,-14.196 c 3.273,0.806 6.529,1.82 9.681,3.017 l -6.436,16.939 c 0.333,0.318 0.665,0.643 0.985,0.97 0.645,0.637 1.271,1.299 1.876,1.942 l 0.492,0.533 c 0.478,0.523 0.975,1.065 1.437,1.608 0.32,0.364 0.632,0.727 0.936,1.087 l 9.948,-18.912 c 2.975,1.566 5.889,3.332 8.658,5.249 l -13.776,19.913 c 0.355,0.504 0.706,1.009 1.04,1.497 l 0.188,0.281 c 0.447,0.663 0.909,1.35 1.343,2.04 0.538,0.845 1.035,1.651 1.502,2.429 l 17.661,-19.916 c 2.517,2.231 4.922,4.638 7.152,7.154 l -21.425,18.991 c 0.181,0.373 0.361,0.754 0.54,1.152 l 0.25,0.562 -0.047,0.549 c -0.139,1.562 -0.293,3.119 -0.454,4.681 -0.036,0.349 -0.08,0.697 -0.119,1.046 l 27.499,-19.021 c 1.916,2.772 3.681,5.688 5.249,8.668 l -1.739,0.914 c 0.144,-0.012 0.287,-0.023 0.434,-0.023 3.216,0 5.83,2.616 5.83,5.831 0,0.946 -0.231,1.838 -0.632,2.627 l 0.274,-0.104 c 1.196,3.156 2.211,6.416 3.013,9.69 l -12.302,3.02 -2.713,8.977 17.189,-2.028 c 0.399,3.326 0.961,6.72 0.961,10.087 V 189 h -20.645 z m -49.302,-64.389 c 0.593,0.623 0.928,0.992 0.928,0.992 0,0 -0.177,-0.468 -0.588,-1.237 -0.411,-0.77 -1.044,-1.85 -1.976,-3.039 -0.465,-0.594 -0.994,-1.227 -1.624,-1.838 -0.625,-0.614 -1.321,-1.241 -2.134,-1.794 -0.806,-0.556 -1.721,-1.054 -2.736,-1.405 -0.252,-0.09 -0.519,-0.156 -0.78,-0.234 -0.27,-0.052 -0.536,-0.122 -0.813,-0.156 -0.281,-0.029 -0.543,-0.074 -0.854,-0.073 l -0.451,-0.009 -0.373,0.02 c -1.108,0.091 -2.116,0.317 -3.107,0.654 -0.982,0.329 -1.899,0.769 -2.735,1.259 -0.838,0.49 -1.59,1.044 -2.264,1.603 -0.68,0.554 -1.27,1.131 -1.782,1.688 -1.036,1.105 -1.75,2.14 -2.212,2.882 -0.46,0.743 -0.659,1.204 -0.659,1.204 0,0 0.354,-0.352 0.99,-0.93 0.636,-0.575 1.561,-1.371 2.708,-2.239 0.579,-0.427 1.218,-0.867 1.9,-1.307 0.689,-0.432 1.434,-0.841 2.217,-1.22 0.783,-0.378 1.614,-0.703 2.472,-0.959 0.848,-0.246 1.767,-0.44 2.615,-0.503 l 0.36,-0.024 0.284,0.008 c 0.18,-0.008 0.402,0.031 0.607,0.046 0.208,0.022 0.416,0.069 0.625,0.1 0.207,0.055 0.415,0.095 0.62,0.16 0.821,0.244 1.614,0.61 2.363,1.031 0.743,0.428 1.453,0.895 2.096,1.391 0.64,0.498 1.239,0.992 1.776,1.474 1.071,0.967 1.931,1.836 2.527,2.455 m 21.002,49.532 c -0.237,-0.689 -0.61,-1.369 -1.048,-2.015 -0.274,-0.405 -0.575,-0.796 -0.889,-1.185 -3.684,-1.826 -10.276,-2.13 -15.681,-2.682 l 0.676,0.35 2.108,1.118 2.093,1.146 2.081,1.165 2.069,1.183 4.082,2.39 c 0.325,0.19 0.641,0.388 1.004,0.578 l 0.263,0.143 0.066,0.036 0.032,0.018 c -0.061,-0.026 -0.012,-0.005 -0.023,-0.01 l 0.006,0.002 0.014,0.007 0.115,0.051 c 0.153,0.074 0.305,0.135 0.457,0.193 0.608,0.238 1.235,0.333 1.734,0.252 0.498,-0.091 0.826,-0.318 1.009,-0.828 0.169,-0.514 0.077,-1.235 -0.168,-1.912 m -4.956,-6.024 c -1.245,-1.923 -2.647,-3.638 -4.166,-5.125 -1.247,-1.223 -2.886,-1.836 -4.872,-1.836 -2.237,0 -4.769,0.791 -7.324,2.28 l -0.1,0.06 -0.027,0.115 c -0.029,0.129 -0.072,0.258 -0.127,0.382 l -0.033,0.074 0.033,-0.073 c 0.055,-0.124 0.098,-0.252 0.127,-0.382 l 0.027,-0.114 0.1,-0.059 c 2.555,-1.49 5.087,-2.277 7.324,-2.277 1.986,0 3.625,0.619 4.872,1.842 1.519,1.486 2.921,3.216 4.166,5.138 l 0.325,0.499 0.04,0.012 z m -12.515,-1.455 c 0.01,0.122 0.024,0.241 0.047,0.36 l 0.008,-0.052 c -0.026,-0.123 -0.043,-0.21 -0.055,-0.308 m -3.246,-2.009 c 0.985,0.671 2.008,1.277 3.041,1.804 l 0.103,0.012 c 0.03,0.003 0.06,0.006 0.088,0.01 0,-0.023 -0.004,-0.045 -0.004,-0.067 0,-1.865 1.51,-3.374 3.373,-3.374 1.864,0 3.373,1.509 3.373,3.374 0,0.243 -0.035,0.379 -0.085,0.61 1.756,0.194 3.473,0.479 5.052,0.809 -1.13,-1.667 -2.38,-3.151 -3.722,-4.467 -1.145,-1.119 -2.657,-1.674 -4.496,-1.674 -2.113,0 -4.514,0.746 -6.954,2.152 -0.02,0.078 -0.047,0.161 -0.078,0.239 0.127,0.173 0.231,0.366 0.309,0.572 m -6.957,-29.499 0.29,1.402 c 0.008,0.04 0.051,0.182 0.083,0.281 l 0.113,0.333 c 0.079,0.227 0.17,0.451 0.262,0.676 0.192,0.448 0.395,0.891 0.621,1.322 0.455,0.858 0.987,1.661 1.598,2.369 0.151,0.177 0.313,0.342 0.475,0.508 0.164,0.16 0.327,0.327 0.504,0.47 0.344,0.304 0.72,0.562 1.108,0.798 0.194,0.126 0.399,0.22 0.603,0.327 0.21,0.089 0.418,0.195 0.64,0.264 0.216,0.083 0.44,0.156 0.669,0.216 0.226,0.072 0.464,0.101 0.701,0.158 l 1.851,0.444 c 2.159,-2.458 5.085,-4.863 8.841,-6.042 0.346,0.016 0.427,-0.272 0.302,-0.811 -4.094,-1.698 -14.178,-5.4 -23.819,-5.195 l -0.067,-2.445 c 3.174,-0.018 6.939,0.131 11.018,0.628 -5.064,-1.569 -2.643,-1.52 -2.069,-1.492 0.067,0.004 0.113,0.007 0.113,0.007 0,0 -0.044,-0.003 -0.113,-0.007 -0.695,-0.04 -4.839,-0.27 -8.982,-0.376 l -0.016,-0.605 -0.017,0.603 c -4.133,-0.105 -8.245,-0.087 -8.887,0.37 -1.349,0.959 -0.81,1.5 -0.81,1.5 0,0 3.814,-0.594 9.664,-0.628 l -0.066,2.445 c -9.242,-0.197 -18.887,3.197 -23.279,4.974 -0.2,0.678 -0.147,1.05 0.242,1.032 3.597,1.13 6.433,3.386 8.565,5.733 l 0.12,-0.054 0.777,-0.342 0.79,-0.376 c 0.524,-0.258 1.044,-0.518 1.549,-0.8 0.504,-0.283 1.005,-0.564 1.487,-0.864 0.481,-0.303 0.946,-0.619 1.397,-0.938 0.451,-0.322 0.867,-0.67 1.265,-1.02 0.403,-0.345 0.764,-0.713 1.082,-1.091 0.166,-0.185 0.3,-0.383 0.447,-0.57 0.133,-0.192 0.262,-0.382 0.368,-0.577 0.11,-0.193 0.208,-0.387 0.281,-0.582 0.087,-0.193 0.131,-0.389 0.195,-0.579 l 0.481,-1.426 1.354,-0.109 c 0.569,-0.044 1.144,-0.101 1.698,-0.119 0.561,-0.03 1.11,-0.043 1.663,-0.046 0.549,0.007 1.096,0.012 1.642,0.032 l 0.821,0.031 c 0.276,0.009 0.54,0.029 0.834,0.051 z m 28.822,42.731 c -0.375,0.457 -0.885,0.779 -1.397,0.963 -1.041,0.365 -2.066,0.286 -2.98,0.09 -0.23,-0.052 -0.458,-0.111 -0.676,-0.186 l -0.167,-0.051 -0.178,-0.065 -0.282,-0.1 c -0.371,-0.124 -0.767,-0.284 -1.158,-0.441 -0.782,-0.326 -1.502,-0.629 -2.242,-0.962 -0.729,-0.336 -1.466,-0.658 -2.184,-1.01 -1.448,-0.684 -2.874,-1.405 -4.294,-2.137 l -2.117,-1.119 -2.097,-1.152 c -2.169,-1.214 -4.31,-2.479 -6.419,-3.796 -0.155,1.471 -0.313,2.945 -0.486,4.416 l -0.393,3.353 c -0.069,0.558 -0.127,1.118 -0.183,1.677 -0.029,0.28 -0.057,0.561 -0.075,0.841 -0.014,0.28 -0.038,0.56 0.005,0.84 -0.137,-0.254 -0.206,-0.541 -0.272,-0.817 -0.065,-0.281 -0.121,-0.562 -0.175,-0.842 -0.099,-0.563 -0.174,-1.129 -0.251,-1.693 -0.157,-1.129 -0.24,-2.259 -0.344,-3.389 -0.092,-1.13 -0.161,-2.26 -0.212,-3.389 -0.059,-1.13 -0.086,-2.257 -0.115,-3.391 l -0.005,-0.168 -0.73,-0.401 -0.999,-23.025 c -0.17,-0.24 -0.335,-0.484 -0.493,-0.732 -0.339,-0.534 -0.648,-1.082 -0.918,-1.651 -0.052,-0.113 -0.1,-0.23 -0.152,-0.343 l -0.201,-0.004 c -0.51,-0.01 -1.019,-0.007 -1.526,-0.005 -0.503,0.014 -1.01,0.004 -1.504,0.026 -0.079,0.001 -0.154,0.008 -0.232,0.011 -0.125,0.242 -0.257,0.478 -0.401,0.705 -0.205,0.33 -0.432,0.633 -0.664,0.93 -0.236,0.287 -0.484,0.567 -0.742,0.818 -1.024,1.034 -2.158,1.821 -3.323,2.477 -0.58,0.331 -1.173,0.624 -1.771,0.886 -0.599,0.261 -1.2,0.507 -1.811,0.714 -0.611,0.209 -1.222,0.406 -1.842,0.569 -0.126,0.033 -0.252,0.062 -0.379,0.093 0.352,0.672 0.697,1.347 1.03,2.031 0.3,0.609 0.58,1.229 0.871,1.841 0.148,0.307 0.281,0.621 0.419,0.935 0.102,0.233 0.202,0.471 0.301,0.709 0.064,0.149 0.099,0.235 0.099,0.235 -0.253,-0.233 -0.498,-0.471 -0.742,-0.71 -0.244,-0.237 -0.49,-0.474 -0.725,-0.721 -0.471,-0.489 -0.952,-0.971 -1.414,-1.466 -0.931,-0.985 -1.826,-1.997 -2.715,-3.011 l -0.345,-0.395 c -3.711,-2.677 -9.187,-4.894 -16.531,-3.476 7.817,-7.745 17.746,-21.403 18.014,-21.938 -3.816,6.974 -7.84,13.62 -9.015,16.591 C 181.86,139.093 187,131.968 197,130.257 v -0.054 c 0,0.007 -0.044,0.019 0.008,0.027 0.049,-0.008 0.027,-0.02 0.079,-0.027 l -0.038,0.054 c 10.148,1.755 15.241,9.209 23.65,14.666 -0.909,-2.728 -5.312,-9.689 -9.319,-17.009 0.268,0.535 10.191,14.193 18.009,21.938 -15.249,-2.944 -22.474,9.779 -22.474,9.779 0,0 0.087,-0.219 0.261,-0.592 l -0.648,0.948 c 0.077,-0.654 0.19,-1.303 0.333,-1.941 0.15,-0.635 0.285,-1.282 0.473,-1.907 0.17,-0.634 0.378,-1.252 0.58,-1.877 0.003,-0.007 0.007,-0.015 0.009,-0.023 -0.063,-0.009 -0.127,-0.015 -0.19,-0.027 -0.326,-0.043 -0.644,-0.132 -0.966,-0.208 -0.317,-0.095 -0.637,-0.186 -0.945,-0.312 -0.623,-0.233 -1.215,-0.543 -1.77,-0.898 -0.285,-0.171 -0.549,-0.367 -0.815,-0.561 -0.259,-0.201 -0.509,-0.412 -0.75,-0.631 -0.479,-0.44 -0.925,-0.909 -1.337,-1.4 -0.004,-0.006 -0.008,-0.012 -0.013,-0.017 l 3.717,19.31 c 0.068,-0.053 0.131,-0.105 0.202,-0.161 1.519,-1.188 3.632,-2.667 5.933,-3.815 0.572,-0.292 1.158,-0.553 1.741,-0.796 0.583,-0.242 1.17,-0.448 1.741,-0.632 0.576,-0.173 1.137,-0.32 1.675,-0.43 0.54,-0.109 1.053,-0.177 1.527,-0.226 0.478,-0.034 0.912,-0.057 1.299,-0.042 0.384,-0.009 0.719,0.046 0.992,0.06 0.547,0.075 0.853,0.13 0.853,0.13 0,0 -0.315,-0.01 -0.858,-0.008 -0.271,0.025 -0.601,0.018 -0.974,0.079 -0.374,0.041 -0.791,0.124 -1.241,0.22 -0.447,0.114 -0.926,0.249 -1.422,0.424 -0.495,0.18 -1.006,0.393 -1.524,0.633 -0.515,0.254 -1.037,0.525 -1.554,0.832 -0.515,0.307 -1.03,0.632 -1.526,0.983 -1.381,0.955 -2.652,2.044 -3.724,3.06 5.051,-2.944 10.415,-3.478 13.714,-0.247 3.547,3.472 5.559,7.303 6.146,8.518 0.484,0.329 0.959,0.679 1.398,1.079 0.602,0.56 1.186,1.171 1.631,1.925 0.433,0.75 0.81,1.636 0.718,2.71 -0.049,0.53 -0.259,1.099 -0.642,1.549 m -66.86,-5.759 c -0.437,0.646 -0.812,1.326 -1.047,2.015 -0.245,0.676 -0.338,1.397 -0.168,1.912 0.183,0.51 0.512,0.737 1.009,0.828 0.498,0.081 1.127,-0.014 1.733,-0.252 0.153,-0.058 0.305,-0.119 0.458,-0.191 l 0.114,-0.053 0.015,-0.007 0.006,-0.002 c -0.011,0.005 0.037,-0.016 -0.024,0.01 l 0.033,-0.018 0.066,-0.036 0.263,-0.143 c 0.362,-0.19 0.679,-0.388 1.006,-0.578 l 4.08,-2.389 2.069,-1.184 2.081,-1.165 2.092,-1.144 2.108,-1.12 0.675,-0.349 c -5.403,0.551 -11.996,0.855 -15.68,2.681 -0.313,0.389 -0.614,0.78 -0.889,1.185 m 16.24,-5.112 c 0.022,-0.12 0.037,-0.24 0.046,-0.364 -0.01,0.103 -0.03,0.191 -0.055,0.316 -0.021,0.108 -0.041,0.225 -0.072,0.225 0.031,0 0.051,-0.113 0.072,-0.221 z m 3.522,-3.167 c -2.438,-1.404 -4.84,-2.146 -6.954,-2.146 -1.838,0 -3.351,0.568 -4.494,1.688 -1.344,1.315 -2.594,2.824 -3.724,4.492 1.576,-0.331 3.291,-0.664 5.052,-0.859 -0.05,-0.231 -0.085,-0.415 -0.085,-0.661 0,-1.863 1.511,-3.349 3.373,-3.349 1.863,0 3.374,1.523 3.374,3.387 0,0.023 -0.005,0.05 -0.005,0.073 0,0.009 -0.001,0.015 -0.002,0.022 0.001,-0.006 0.002,-0.011 0.002,-0.015 0.028,-0.004 0.06,-0.006 0.088,-0.01 l 0.105,-0.011 c 1.033,-0.527 2.055,-1.133 3.041,-1.803 0.077,-0.206 0.181,-0.398 0.307,-0.572 -0.03,-0.076 -0.056,-0.156 -0.078,-0.236 m -16.356,4.855 0.652,-0.249 -0.612,0.188 z m 3.649,-6.598 c 3.299,-3.231 8.664,-2.697 13.713,0.247 -1.072,-1.016 -2.342,-2.105 -3.721,-3.06 -0.498,-0.351 -1.013,-0.676 -1.529,-0.983 -0.516,-0.307 -1.039,-0.578 -1.553,-0.832 -0.519,-0.24 -1.029,-0.453 -1.523,-0.633 -0.497,-0.175 -0.976,-0.31 -1.423,-0.424 -0.45,-0.096 -0.867,-0.179 -1.241,-0.22 -0.373,-0.061 -0.702,-0.054 -0.974,-0.079 -0.543,-0.002 -0.858,0.008 -0.858,0.008 0,0 0.308,-0.055 0.852,-0.13 0.274,-0.014 0.609,-0.069 0.994,-0.06 0.386,-0.015 0.82,0.008 1.298,0.042 0.474,0.049 0.988,0.117 1.527,0.226 0.538,0.11 1.099,0.257 1.674,0.43 0.572,0.184 1.159,0.39 1.742,0.632 0.583,0.243 1.17,0.504 1.742,0.796 2.3,1.148 4.412,2.627 5.932,3.815 0.76,0.597 1.376,1.121 1.803,1.5 0.154,0.14 0.275,0.249 0.378,0.343 l 0.665,-0.308 -0.057,2.111 c -0.03,1.134 -0.057,2.261 -0.114,3.391 -0.052,1.129 -0.121,2.259 -0.212,3.389 -0.106,1.13 -0.189,2.26 -0.345,3.389 -0.077,0.564 -0.152,1.13 -0.252,1.693 -0.054,0.28 -0.109,0.561 -0.175,0.842 -0.065,0.276 -0.134,0.563 -0.269,0.817 0.043,-0.28 0.016,-0.56 0.003,-0.84 -0.018,-0.28 -0.045,-0.561 -0.075,-0.84 -0.056,-0.56 -0.114,-1.12 -0.183,-1.678 l -0.393,-3.353 c -0.174,-1.471 -0.33,-2.945 -0.485,-4.416 -2.111,1.317 -4.251,2.583 -6.419,3.796 l -2.098,1.152 -2.117,1.119 c -1.419,0.732 -2.846,1.453 -4.294,2.137 -0.718,0.352 -1.454,0.674 -2.184,1.01 -0.741,0.333 -1.459,0.636 -2.243,0.962 -0.39,0.157 -0.786,0.317 -1.156,0.442 l -0.283,0.099 -0.179,0.065 -0.166,0.051 c -0.218,0.075 -0.445,0.134 -0.676,0.186 -0.915,0.196 -1.938,0.275 -2.979,-0.09 -0.513,-0.184 -1.023,-0.506 -1.397,-0.963 -0.382,-0.45 -0.592,-1.019 -0.642,-1.549 -0.092,-1.074 0.285,-1.96 0.717,-2.71 0.445,-0.754 1.031,-1.365 1.631,-1.925 0.44,-0.4 0.914,-0.75 1.399,-1.079 0.586,-1.215 2.598,-5.046 6.145,-8.518 M 251,351 H 116 v 3 h 135 z m 39,-37 h 4 V 171 h -4 z M 144,47 H 279 V 44 H 144 Z m -40,174 h 4 V 84 h -4 z M 312,31.008 C 312,28.358 311.227,25 309.203,25 H 90.288 C 88.092,25 86,28.403 86,31.008 v 337.476 c 0,2.58 2.055,4.516 4.288,4.516 h 218.915 c 0.853,0 2.797,-0.544 2.797,-4.516 z M 309.203,376 H 90.288 C 86.557,376 83,372.837 83,368.484 V 31.008 C 83,26.745 86.458,22 90.288,22 h 218.915 c 4.002,0 5.797,4.811 5.797,9.008 v 337.476 c 0,4.355 -1.979,7.516 -5.797,7.516"
               style="fill:#000000;fill-opacity:1;fill-rule:nonzero;stroke:none"
               id="path4397" /><path
               d="M 131.563,63.809 141.466,71 H 129.225 L 125.443,82.643 121.66,71 h -12.242 l 9.905,-7.199 -3.783,-11.588 9.903,7.153 9.903,-7.182 z m 14.234,1.992 c 0,-11.241 -9.112,-20.355 -20.354,-20.355 -11.242,0 -20.356,9.114 -20.356,20.355 0,11.242 9.114,20.355 20.356,20.355 11.242,0 20.354,-9.113 20.354,-20.355 M 254.391,337 l 10.305,-7.178 -3.935,-11.972 10.305,7.574 10.306,-7.441 -3.936,11.817 10.306,7.2 H 275.003 L 271.066,349.116 267.129,337 Z m -4.508,-4.801 c 0,11.698 9.484,21.183 21.183,21.183 11.7,0 21.183,-9.485 21.183,-21.183 0,-11.7 -9.483,-21.184 -21.183,-21.184 -11.699,0 -21.183,9.484 -21.183,21.184 m 42.496,-179.42 c 0,0.665 -0.827,1.239 -2.48,1.72 -1.331,0.384 -2.511,0.575 -3.54,0.575 -1.016,0 -1.87,-0.093 -2.563,-0.277 -0.796,-0.22 -1.194,-0.521 -1.194,-0.905 0,-0.577 0.613,-1.135 1.837,-1.672 1.225,-0.539 2.502,-0.809 3.834,-0.809 1.105,0 2.065,0.133 2.882,0.397 0.816,0.263 1.224,0.588 1.224,0.971 m 6.67,11.652 c 0.006,-0.035 0.013,-0.077 0.021,-0.124 0,-0.762 -0.121,-1.163 -0.361,-1.204 -0.397,-0.056 -0.795,-0.111 -1.194,-0.165 -0.398,-0.124 -0.61,-0.425 -0.638,-0.906 -0.178,-2.58 -0.37,-4.531 -0.576,-5.856 -0.371,-2.313 -0.961,-4.456 -1.77,-6.433 0.143,0.028 0.349,0.041 0.617,0.041 0.727,0 1.304,-0.194 1.729,-0.586 l -0.658,-2.429 c -1.208,0.94 -2.456,1.603 -3.747,1.986 -1.084,0.322 -2.343,0.483 -3.777,0.483 -0.617,0 -1.628,-0.046 -3.031,-0.137 -1.403,-0.093 -2.263,-0.139 -2.578,-0.139 -1.517,0 -2.659,0.36 -3.428,1.08 -0.651,0.61 -0.977,1.417 -0.977,2.419 0,1.51 0.802,2.703 2.408,3.581 1.407,0.775 3.136,1.163 5.188,1.163 0.672,0 1.386,-0.041 2.14,-0.123 -1.537,0.321 -2.617,0.71 -3.242,1.162 -0.508,0.378 -0.761,0.852 -0.761,1.421 0,0.232 0.057,0.634 0.169,1.199 0.113,0.567 0.17,1.011 0.17,1.333 0,0.844 -0.49,1.267 -1.472,1.267 -0.781,0 -1.663,-0.194 -2.645,-0.578 -0.953,-0.37 -1.43,-0.681 -1.43,-0.937 0,-0.089 0.072,-0.133 0.215,-0.133 0.097,0 0.436,0.067 1.02,0.201 0.583,0.133 1.06,0.201 1.431,0.201 0.919,0 1.499,-0.299 1.739,-0.897 0.034,-0.074 0.051,-0.168 0.051,-0.277 0,-0.459 -0.291,-0.96 -0.875,-1.503 -0.644,-0.603 -1.499,-1.107 -2.562,-1.513 -0.515,-0.197 -0.985,-0.299 -1.41,-0.299 -0.625,0 -1.122,0.213 -1.493,0.638 -0.315,0.358 -0.473,0.756 -0.473,1.196 0,0.884 0.333,1.8 0.999,2.747 0.933,1.324 2.295,2.145 4.086,2.46 1.2,0.212 2.212,0.319 3.035,0.319 2.457,0 3.833,-0.789 4.127,-2.367 0.09,-0.494 0.172,-1.409 0.247,-2.748 0.055,-0.947 0.206,-1.65 0.453,-2.11 0.336,-0.651 0.975,-1.2 1.915,-1.646 0.055,0.164 0.082,0.641 0.082,1.429 0,1.997 -0.364,4.225 -1.091,6.68 l 4.858,0.03 c 2.243,0.022 3.406,0.045 3.489,0.074 m -2.469,-27.353 0.072,2.635 c -0.473,-0.337 -1.142,-0.505 -2.006,-0.505 -0.426,0 -1.054,0.045 -1.884,0.134 -0.974,0.102 -1.653,0.165 -2.038,0.184 -2.229,0.112 -3.495,0.165 -3.797,0.165 -1.956,0 -3.472,-0.281 -4.55,-0.843 -1.426,-0.747 -2.24,-2.035 -2.439,-3.861 -0.02,-0.066 -0.03,-0.177 -0.03,-0.328 0,-1.283 0.761,-1.925 2.284,-1.925 0.281,0 0.611,0.029 0.988,0.082 1.269,0.194 2.255,0.512 2.954,0.958 0.659,0.418 0.988,0.896 0.988,1.431 0,0.179 -0.034,0.353 -0.102,0.525 -0.419,1.029 -1.298,1.543 -2.636,1.543 -0.144,0 -0.319,-0.008 -0.525,-0.025 -0.205,-0.018 -0.37,-0.025 -0.493,-0.025 -0.151,0 -0.227,0.037 -0.227,0.112 0,0.15 0.223,0.326 0.669,0.524 0.508,0.227 1.049,0.34 1.627,0.34 1.825,0 3.125,-0.387 3.9,-1.163 0.892,-0.886 1.403,-2.515 1.533,-4.89 -0.638,0.023 -1.279,0.046 -1.925,0.074 -1.399,0.054 -2.387,0.123 -2.963,0.206 -0.062,0.007 -0.104,0 -0.124,-0.022 -0.027,-0.032 -0.027,-0.112 0,-0.235 0.282,-1.188 0.422,-2.031 0.422,-2.532 0,-0.145 -0.01,-0.367 -0.03,-0.669 -0.021,-0.302 -0.032,-0.529 -0.032,-0.681 0,-0.493 0.069,-0.881 0.206,-1.161 0.426,0.013 0.978,0.164 1.658,0.452 0.281,0.123 0.579,0.272 0.895,0.443 -0.185,0.185 -0.37,0.37 -0.556,0.555 -0.22,0.262 -0.33,0.546 -0.33,0.856 0,0.183 0.028,0.366 0.083,0.545 0.035,0.103 0.525,0.209 1.472,0.318 0.391,0.042 0.858,0.082 1.399,0.124 0,-0.179 0.011,-0.484 0.031,-0.917 0.021,-0.432 0.031,-0.772 0.031,-1.019 0,-1.357 -0.202,-2.51 -0.607,-3.459 -1.242,-0.053 -1.932,-0.081 -2.068,-0.081 -1.764,0 -2.838,0.303 -3.222,0.906 -0.261,0.398 -0.419,1.085 -0.474,2.058 -0.014,0.09 -0.088,0.134 -0.226,0.134 -0.165,0 -0.391,-0.017 -0.679,-0.052 -0.364,-0.034 -0.594,-0.054 -0.69,-0.06 -0.192,-0.688 -0.384,-1.376 -0.576,-2.07 -0.268,-0.823 -0.59,-1.588 -0.967,-2.296 2.428,0.104 4.494,0.156 6.195,0.156 1.496,0 3.389,-0.12 5.681,-0.361 2.258,-0.233 3.689,-0.453 4.292,-0.659 0.041,0.076 0.061,0.268 0.061,0.576 0,0.501 -0.075,0.793 -0.225,0.875 -0.529,0.137 -0.992,0.238 -1.39,0.299 -0.391,0.152 -0.59,0.463 -0.597,0.937 -0.048,5.249 -0.538,9.231 -1.472,11.949 0.597,-0.281 1.139,-0.423 1.626,-0.423 0.323,0 0.594,0.057 0.813,0.166 m 2.229,-39.552 c -0.776,0.171 -1.288,0.329 -1.534,0.473 -0.33,0.192 -0.494,0.484 -0.494,0.875 0,0.089 0.003,0.209 0.01,0.36 0.008,0.151 0.01,0.268 0.01,0.351 0,1.645 -0.16,3.42 -0.483,5.32 -0.309,1.798 -0.693,3.321 -1.153,4.57 0.632,-0.295 1.222,-0.443 1.771,-0.443 0.335,0 0.631,0.041 0.884,0.123 l 0.041,2.677 c -0.356,-0.234 -0.898,-0.35 -1.626,-0.35 -1.008,0 -2.284,0.219 -3.828,0.659 -1.235,0.356 -2.193,0.703 -2.871,1.039 1.131,-3.156 1.777,-5.466 1.934,-6.927 0,-0.171 -0.089,-0.256 -0.267,-0.256 -1.613,0 -2.985,0.462 -4.117,1.39 -0.968,0.795 -1.451,1.591 -1.451,2.386 0,0.33 0.206,0.604 0.617,0.823 0.213,0.11 0.631,0.258 1.256,0.443 0.144,0.034 0.216,0.209 0.216,0.524 0,0.254 -0.038,0.485 -0.113,0.691 -0.261,-0.042 -1.006,-0.063 -2.233,-0.063 -1.496,0 -3.483,0.021 -5.96,0.063 0,-3.108 1.49,-5.404 4.467,-6.886 1.914,-0.961 3.746,-1.44 5.496,-1.44 0.206,0 0.413,0.023 0.623,0.035 0.209,0.014 0.321,0.037 0.334,0.037 h 0.021 c -2.024,-4 -4.309,-6.23 -6.855,-6.23 -0.391,0 -0.586,0.055 -0.586,0.185 0,0.125 0.103,0.23 0.309,0.325 0.37,0.145 0.741,0.285 1.111,0.422 0.604,0.255 1.074,0.553 1.41,0.902 0.473,0.495 0.717,1.096 0.731,1.803 0.007,0.488 -0.241,0.864 -0.741,1.132 -0.481,0.254 -1.119,0.379 -1.915,0.379 -0.631,0 -1.334,-0.092 -2.11,-0.277 -1.982,-0.467 -2.974,-1.273 -2.974,-2.418 0,-0.495 0.148,-1.002 0.443,-1.524 0.926,-1.627 2.402,-2.44 4.425,-2.44 2.189,0 3.98,0.731 5.373,2.193 1.063,1.126 2.075,2.944 3.036,5.454 0.013,-0.205 0.021,-0.527 0.021,-0.967 0,-2.545 -0.546,-5.052 -1.637,-7.523 3.252,0.433 6.137,0.763 8.656,0.987 0.013,0.707 -0.069,1.081 -0.247,1.123 m -4.112,-20.632 c 0,1.105 -0.621,2.02 -1.863,2.747 -1.077,0.626 -2.227,0.936 -3.448,0.936 -1.537,0 -2.94,-0.434 -4.209,-1.306 -1.242,-0.844 -1.864,-1.744 -1.864,-2.697 0,-0.961 0.543,-1.77 1.627,-2.428 1.057,-0.66 2.33,-0.989 3.818,-0.989 1.346,0 2.656,0.378 3.932,1.13 1.338,0.791 2.007,1.658 2.007,2.607 m -0.051,6.349 c 1.454,-1.688 2.181,-3.722 2.181,-6.102 0,-2.272 -0.751,-4.241 -2.254,-5.908 -1.653,-1.833 -3.798,-2.749 -6.432,-2.749 -5.084,0 -7.626,1.744 -7.626,5.229 0,1.284 0.329,2.792 0.987,4.528 0.762,1.996 1.716,3.623 2.862,4.88 1.564,1.709 3.358,2.562 5.382,2.562 1.86,0 3.493,-0.814 4.9,-2.44 m -2.678,-24.151 c -1.42,0.74 -3.012,1.111 -4.776,1.111 -0.473,0 -0.998,-0.04 -1.574,-0.123 -3.04,-0.446 -4.803,-1.987 -5.29,-4.622 -0.159,-0.83 -0.237,-1.581 -0.237,-2.253 0,-1.413 0.429,-2.988 1.286,-4.725 0.968,-1.962 1.537,-3.592 1.709,-4.888 0.021,-0.144 0.093,0.012 0.216,0.019 2.23,0.11 4.989,0.389 8.275,0.389 h 2.429 c 0.103,0 0.144,-0.19 0.123,-0.122 -0.7,2.643 -1.135,4.661 -1.307,6.278 -0.652,-0.156 -1.19,-0.334 -1.616,-0.416 -0.48,-0.123 -0.72,-0.317 -0.72,-0.531 0,-0.11 0.053,-0.414 0.16,-0.884 0.105,-0.47 0.159,-0.798 0.159,-0.969 0,-0.33 -0.099,-0.559 -0.299,-0.684 -0.898,-0.549 -1.959,-0.999 -3.18,-1.348 -1.235,2.406 -1.852,5.081 -1.852,8.026 0,1.584 0.219,2.874 0.658,3.87 0.481,1.09 1.16,1.635 2.038,1.635 0.652,0 1.369,-0.263 2.151,-0.792 0.728,-0.495 1.091,-0.892 1.091,-1.194 0,-0.089 -0.035,-0.144 -0.103,-0.164 -2.47,-0.619 -3.777,-1.658 -3.921,-3.119 -0.055,-0.535 0.221,-0.966 0.828,-1.287 0.608,-0.322 1.464,-0.484 2.568,-0.484 0.46,0 0.999,0.04 1.616,0.124 2.127,0.289 3.191,0.992 3.191,2.11 0,0.406 -0.106,0.889 -0.319,1.451 -0.584,1.55 -1.685,2.747 -3.304,3.592 M 106.326,238.835 c 1.016,0 1.87,0.093 2.564,0.279 0.795,0.219 1.193,0.521 1.193,0.905 0,0.577 -0.612,1.133 -1.837,1.672 -1.225,0.538 -2.503,0.809 -3.834,0.809 -1.104,0 -2.065,-0.132 -2.881,-0.397 -0.817,-0.265 -1.226,-0.588 -1.226,-0.972 0,-0.666 0.827,-1.239 2.481,-1.719 1.331,-0.385 2.511,-0.577 3.54,-0.577 m -2.737,-7.647 c -0.089,0.495 -0.172,1.411 -0.247,2.749 -0.055,0.946 -0.206,1.649 -0.453,2.109 -0.336,0.652 -0.974,1.201 -1.914,1.646 -0.056,-0.163 -0.083,-0.64 -0.083,-1.429 0,-1.996 0.364,-4.223 1.091,-6.68 l -4.858,-0.031 c -2.243,-0.02 -3.406,-0.044 -3.488,-0.073 -0.007,0.036 -0.014,0.077 -0.021,0.125 0,0.762 0.12,1.163 0.36,1.204 0.398,0.055 0.796,0.109 1.194,0.165 0.397,0.124 0.61,0.424 0.638,0.905 0.178,2.58 0.371,4.532 0.576,5.856 0.371,2.311 0.961,4.456 1.771,6.433 -0.145,-0.027 -0.35,-0.042 -0.618,-0.042 -0.727,0 -1.304,0.196 -1.729,0.586 l 0.659,2.43 c 1.207,-0.939 2.456,-1.602 3.746,-1.986 1.084,-0.322 2.343,-0.484 3.778,-0.484 0.617,0 1.627,0.047 3.03,0.139 1.403,0.092 2.263,0.139 2.579,0.139 1.516,0 2.658,-0.361 3.426,-1.08 0.652,-0.611 0.978,-1.418 0.978,-2.419 0,-1.511 -0.803,-2.704 -2.408,-3.581 -1.407,-0.776 -3.135,-1.164 -5.187,-1.164 -0.672,0 -1.386,0.041 -2.141,0.124 1.537,-0.323 2.618,-0.71 3.242,-1.163 0.508,-0.378 0.762,-0.852 0.762,-1.42 0,-0.234 -0.057,-0.633 -0.17,-1.201 -0.113,-0.565 -0.17,-1.009 -0.17,-1.332 0,-0.843 0.491,-1.265 1.472,-1.265 0.782,0 1.663,0.192 2.645,0.575 0.953,0.371 1.431,0.683 1.431,0.937 0,0.09 -0.072,0.135 -0.217,0.135 -0.096,0 -0.435,-0.068 -1.018,-0.201 -0.584,-0.134 -1.06,-0.202 -1.431,-0.202 -0.919,0 -1.5,0.3 -1.739,0.896 -0.035,0.076 -0.052,0.169 -0.052,0.278 0,0.46 0.291,0.961 0.875,1.503 0.645,0.604 1.499,1.108 2.562,1.513 0.515,0.199 0.985,0.298 1.411,0.298 0.624,0 1.122,-0.213 1.492,-0.638 0.316,-0.357 0.473,-0.754 0.473,-1.194 0,-0.886 -0.333,-1.802 -0.998,-2.747 -0.933,-1.326 -2.295,-2.144 -4.086,-2.46 -1.201,-0.213 -2.213,-0.319 -3.036,-0.319 -2.457,0 -3.832,0.788 -4.127,2.366 m -6.484,26.645 -0.072,-2.635 c 0.473,0.337 1.142,0.505 2.007,0.505 0.425,0 1.053,-0.045 1.883,-0.135 0.974,-0.102 1.654,-0.164 2.038,-0.185 2.23,-0.111 3.496,-0.164 3.798,-0.164 1.955,0 3.471,0.281 4.549,0.844 1.427,0.747 2.24,2.034 2.439,3.858 0.021,0.07 0.031,0.18 0.031,0.33 0,1.284 -0.762,1.925 -2.285,1.925 -0.282,0 -0.61,-0.029 -0.988,-0.082 -1.27,-0.193 -2.254,-0.512 -2.953,-0.957 -0.659,-0.419 -0.989,-0.896 -0.989,-1.431 0,-0.179 0.034,-0.354 0.103,-0.525 0.419,-1.03 1.297,-1.544 2.635,-1.544 0.144,0 0.319,0.009 0.525,0.026 0.206,0.017 0.37,0.025 0.494,0.025 0.151,0 0.226,-0.038 0.226,-0.112 0,-0.151 -0.223,-0.327 -0.669,-0.525 -0.507,-0.227 -1.05,-0.341 -1.626,-0.341 -1.825,0 -3.125,0.389 -3.901,1.164 -0.892,0.886 -1.403,2.515 -1.533,4.889 0.638,-0.021 1.28,-0.045 1.924,-0.074 1.4,-0.053 2.388,-0.123 2.965,-0.205 0.062,-0.006 0.103,0 0.123,0.02 0.028,0.035 0.028,0.115 0,0.238 -0.281,1.187 -0.422,2.03 -0.422,2.531 0,0.144 0.01,0.368 0.031,0.669 0.021,0.303 0.031,0.529 0.031,0.68 0,0.494 -0.069,0.881 -0.206,1.164 -0.425,-0.015 -0.977,-0.165 -1.657,-0.454 -0.281,-0.124 -0.58,-0.271 -0.896,-0.442 l 0.557,-0.557 c 0.219,-0.26 0.329,-0.545 0.329,-0.854 0,-0.185 -0.028,-0.366 -0.083,-0.544 -0.034,-0.104 -0.524,-0.21 -1.471,-0.319 -0.391,-0.042 -0.858,-0.083 -1.4,-0.124 0,0.177 -0.01,0.484 -0.031,0.916 -0.021,0.432 -0.03,0.772 -0.03,1.019 0,1.359 0.201,2.511 0.607,3.458 1.241,0.054 1.931,0.082 2.068,0.082 1.764,0 2.837,-0.302 3.222,-0.906 0.26,-0.398 0.418,-1.084 0.473,-2.059 0.013,-0.089 0.089,-0.133 0.226,-0.133 0.165,0 0.391,0.017 0.679,0.051 0.365,0.035 0.594,0.056 0.69,0.062 0.192,0.686 0.385,1.375 0.577,2.069 0.267,0.823 0.589,1.588 0.967,2.296 -2.429,-0.103 -4.494,-0.156 -6.195,-0.156 -1.496,0 -3.391,0.121 -5.682,0.361 -2.258,0.233 -3.688,0.452 -4.292,0.657 -0.041,-0.074 -0.062,-0.267 -0.062,-0.574 0,-0.501 0.077,-0.793 0.227,-0.875 0.528,-0.138 0.992,-0.238 1.389,-0.3 0.391,-0.15 0.59,-0.462 0.597,-0.937 0.048,-5.249 0.539,-9.231 1.472,-11.947 -0.597,0.28 -1.139,0.421 -1.627,0.421 -0.321,0 -0.593,-0.056 -0.812,-0.164 m -2.228,41.551 c 0.775,-0.172 1.286,-0.328 1.534,-0.472 0.329,-0.193 0.493,-0.484 0.493,-0.875 0,-0.09 -0.003,-0.21 -0.01,-0.361 -0.007,-0.152 -0.01,-0.267 -0.01,-0.35 0,-1.646 0.161,-3.42 0.484,-5.322 0.308,-1.796 0.693,-3.32 1.153,-4.568 -0.632,0.293 -1.222,0.441 -1.771,0.441 -0.336,0 -0.631,-0.041 -0.885,-0.124 l -0.042,-2.674 c 0.357,0.233 0.9,0.35 1.627,0.35 1.009,0 2.284,-0.221 3.829,-0.659 1.235,-0.357 2.191,-0.704 2.871,-1.041 -1.132,3.158 -1.777,5.467 -1.935,6.928 0,0.172 0.09,0.257 0.267,0.257 1.613,0 2.985,-0.462 4.118,-1.39 0.966,-0.795 1.45,-1.591 1.45,-2.387 0,-0.329 -0.205,-0.603 -0.617,-0.824 -0.213,-0.109 -0.632,-0.256 -1.255,-0.442 -0.145,-0.035 -0.217,-0.209 -0.217,-0.525 0,-0.253 0.038,-0.483 0.114,-0.689 0.26,0.041 1.005,0.062 2.233,0.062 1.496,0 3.482,-0.021 5.959,-0.062 0,3.108 -1.489,5.403 -4.467,6.885 -1.914,0.96 -3.746,1.44 -5.496,1.44 -0.206,0 -0.413,0.022 -0.622,0.01 -0.21,-0.015 -0.321,0.008 -0.335,0.008 h -0.02 c 2.024,4 4.308,6.187 6.854,6.187 0.391,0 0.587,-0.081 0.587,-0.21 0,-0.124 -0.103,-0.24 -0.309,-0.336 -0.371,-0.144 -0.741,-0.289 -1.112,-0.426 -0.604,-0.255 -1.073,-0.557 -1.409,-0.907 -0.474,-0.495 -0.718,-1.097 -0.731,-1.804 -0.007,-0.486 0.24,-0.863 0.741,-1.131 0.48,-0.254 1.118,-0.381 1.914,-0.381 0.631,0 1.335,0.092 2.11,0.278 1.983,0.467 2.974,1.272 2.974,2.418 0,0.495 -0.148,1.001 -0.442,1.522 -0.927,1.626 -2.402,2.44 -4.426,2.44 -2.189,0 -3.979,-0.731 -5.372,-2.192 -1.063,-1.125 -2.076,-2.943 -3.037,-5.455 -0.014,0.206 -0.02,0.529 -0.02,0.968 0,2.546 0.545,5.052 1.636,7.524 -3.252,-0.433 -6.138,-0.763 -8.655,-0.989 -0.014,-0.706 0.069,-1.08 0.247,-1.122 m 4.111,19.633 c 0,-1.105 0.621,-2.02 1.864,-2.748 1.076,-0.624 2.226,-0.936 3.447,-0.936 1.537,0 2.94,0.435 4.21,1.307 1.241,0.843 1.863,1.743 1.863,2.695 0,0.961 -0.542,1.771 -1.626,2.43 -1.057,0.659 -2.33,0.987 -3.819,0.987 -1.345,0 -2.656,-0.377 -3.931,-1.131 -1.338,-0.789 -2.008,-1.658 -2.008,-2.604 m 0.052,-6.35 c -1.455,1.687 -2.182,3.723 -2.182,6.103 0,2.271 0.752,4.241 2.254,5.908 1.654,1.832 3.798,2.748 6.432,2.748 5.084,0 7.627,-1.743 7.627,-5.228 0,-1.284 -0.33,-2.793 -0.988,-4.53 -0.762,-1.995 -1.716,-3.623 -2.861,-4.878 -1.565,-1.708 -3.359,-2.562 -5.383,-2.562 -1.859,0 -3.493,0.812 -4.899,2.439 m 1.677,22.151 c 1.421,-0.74 3.012,-1.111 4.776,-1.111 0.474,0 0.998,0.042 1.574,0.124 3.04,0.445 4.803,1.985 5.291,4.621 0.157,0.83 0.237,1.582 0.237,2.254 0,1.414 -0.429,2.987 -1.287,4.724 -0.968,1.962 -1.537,3.591 -1.708,4.887 -0.021,0.145 -0.093,0.534 -0.217,0.528 -2.23,-0.111 -4.988,0.155 -8.275,0.155 H 98.68 c -0.103,0 -0.144,-0.354 -0.124,-0.423 0.699,-2.642 1.136,-4.932 1.307,-6.552 0.652,0.158 1.19,0.199 1.616,0.281 0.48,0.124 0.721,0.251 0.721,0.464 0,0.108 -0.054,0.379 -0.16,0.85 -0.106,0.47 -0.16,0.779 -0.16,0.952 0,0.328 0.1,0.55 0.299,0.674 0.899,0.548 1.959,0.997 3.18,1.347 1.235,-2.409 1.853,-5.088 1.853,-8.03 0,-1.586 -0.22,-2.876 -0.659,-3.871 -0.48,-1.091 -1.159,-1.636 -2.038,-1.636 -0.652,0 -1.369,0.263 -2.151,0.792 -0.727,0.494 -1.091,0.892 -1.091,1.194 0,0.088 0.034,0.144 0.103,0.164 2.47,0.618 3.777,1.657 3.921,3.119 0.055,0.534 -0.221,0.964 -0.828,1.287 -0.607,0.322 -1.464,0.484 -2.568,0.484 -0.46,0 -0.998,-0.042 -1.616,-0.124 -2.127,-0.288 -3.19,-0.993 -3.19,-2.11 0,-0.406 0.106,-0.889 0.319,-1.451 0.583,-1.552 1.684,-2.748 3.303,-3.593 m 64.576,-70.606 c -1.764,-4.385 -8.756,-25.817 -18.754,-57.507 -6.282,-19.91 -12.096,-38.627 -15.296,-49.114 0.292,-0.186 0.573,-0.381 0.836,-0.605 l 45.206,84.777 -0.131,-0.04 0.18,0.132 1.893,3.549 2.206,-0.533 8.176,6.014 c -11.629,6.44 -21.417,11.823 -24.316,13.327 m 19.47,-20.148 11.026,3.394 c 6.411,-3.556 13.093,-7.27 19.297,-10.727 z"
               style="fill:#ff0000;fill-opacity:1;fill-rule:nonzero;stroke:none"
               id="path4399" /></g></g><path
           d="m 159.766,70.771 c 0,0.366 -0.053,0.68 -0.162,0.939 -0.104,0.263 -0.252,0.464 -0.442,0.606 -0.19,0.139 -0.399,0.209 -0.629,0.209 -0.365,0 -0.672,-0.154 -0.924,-0.451 -0.251,-0.303 -0.377,-0.742 -0.377,-1.328 0,-0.549 0.126,-0.976 0.374,-1.279 0.25,-0.307 0.56,-0.462 0.927,-0.462 0.22,0 0.425,0.067 0.613,0.202 0.185,0.134 0.336,0.333 0.449,0.598 0.114,0.268 0.171,0.59 0.171,0.966 m -2.595,2.012 v -0.166 c 0.248,0.321 0.506,0.558 0.775,0.705 0.269,0.151 0.574,0.229 0.914,0.229 0.407,0 0.782,-0.112 1.124,-0.332 0.343,-0.219 0.613,-0.537 0.812,-0.96 0.2,-0.423 0.298,-0.921 0.298,-1.499 0,-0.424 -0.056,-0.819 -0.171,-1.17 -0.115,-0.358 -0.272,-0.656 -0.473,-0.899 -0.2,-0.24 -0.439,-0.427 -0.711,-0.555 -0.274,-0.132 -0.567,-0.197 -0.879,-0.197 -0.38,0 -0.698,0.08 -0.956,0.239 -0.258,0.158 -0.501,0.389 -0.733,0.697 v -2.073 c 0,-0.609 -0.213,-0.911 -0.636,-0.911 -0.248,0 -0.414,0.077 -0.493,0.234 -0.081,0.157 -0.121,0.385 -0.121,0.686 v 5.963 c 0,0.263 0.052,0.46 0.163,0.59 0.112,0.129 0.263,0.197 0.451,0.197 0.188,0 0.341,-0.068 0.459,-0.202 0.117,-0.136 0.177,-0.326 0.177,-0.576"
           style="fill:#ffffff;fill-opacity:1;fill-rule:nonzero;stroke:none"
           id="path4401" /><path
           d="m 165.598,68.722 v 0.174 c -0.16,-0.209 -0.326,-0.382 -0.501,-0.524 -0.176,-0.145 -0.367,-0.249 -0.572,-0.318 -0.208,-0.068 -0.445,-0.102 -0.709,-0.102 -0.318,0 -0.606,0.069 -0.86,0.206 -0.254,0.139 -0.45,0.329 -0.588,0.571 -0.167,0.294 -0.248,0.716 -0.248,1.265 v 2.738 c 0,0.275 0.059,0.482 0.179,0.618 0.119,0.136 0.278,0.207 0.474,0.207 0.202,0 0.362,-0.071 0.487,-0.21 0.122,-0.138 0.183,-0.345 0.183,-0.615 V 70.52 c 0,-0.321 0.026,-0.588 0.075,-0.805 0.054,-0.219 0.147,-0.389 0.283,-0.514 0.132,-0.123 0.315,-0.182 0.543,-0.182 0.226,0 0.435,0.069 0.63,0.208 0.199,0.136 0.344,0.316 0.434,0.539 0.074,0.197 0.111,0.624 0.111,1.285 v 1.681 c 0,0.27 0.061,0.477 0.185,0.615 0.122,0.139 0.281,0.21 0.479,0.21 0.197,0 0.356,-0.071 0.475,-0.207 0.119,-0.136 0.177,-0.343 0.177,-0.618 v -4.003 c 0,-0.262 -0.055,-0.46 -0.171,-0.591 -0.113,-0.133 -0.26,-0.197 -0.443,-0.197 -0.179,0 -0.329,0.071 -0.448,0.204 -0.117,0.138 -0.175,0.328 -0.175,0.577"
           style="fill:#ffffff;fill-opacity:1;fill-rule:nonzero;stroke:none"
           id="path4403" /><path
           d="m 169.437,70.717 c 0,-0.551 0.12,-0.971 0.359,-1.268 0.242,-0.294 0.558,-0.444 0.95,-0.444 0.334,0 0.619,0.152 0.861,0.454 0.242,0.303 0.363,0.732 0.363,1.297 0,0.368 -0.051,0.68 -0.151,0.943 -0.102,0.264 -0.245,0.467 -0.427,0.61 -0.187,0.142 -0.399,0.216 -0.646,0.216 -0.254,0 -0.475,-0.074 -0.674,-0.216 -0.197,-0.143 -0.352,-0.351 -0.467,-0.623 -0.112,-0.27 -0.168,-0.592 -0.168,-0.969 m -0.063,4.105 v -2.111 c 0.246,0.273 0.501,0.477 0.76,0.623 0.259,0.144 0.579,0.217 0.961,0.217 0.439,0 0.824,-0.112 1.155,-0.328 0.332,-0.221 0.591,-0.534 0.771,-0.947 0.185,-0.413 0.275,-0.902 0.275,-1.469 0,-0.42 -0.049,-0.803 -0.15,-1.154 -0.104,-0.348 -0.25,-0.65 -0.444,-0.909 -0.196,-0.255 -0.431,-0.451 -0.706,-0.596 -0.279,-0.136 -0.583,-0.209 -0.915,-0.209 -0.204,0 -0.395,0.027 -0.576,0.078 -0.179,0.049 -0.333,0.116 -0.458,0.201 -0.127,0.079 -0.234,0.166 -0.323,0.252 -0.089,0.089 -0.204,0.219 -0.35,0.395 v -0.136 c 0,-0.26 -0.061,-0.457 -0.181,-0.591 -0.118,-0.133 -0.272,-0.199 -0.454,-0.199 -0.189,0 -0.338,0.066 -0.449,0.199 -0.113,0.137 -0.167,0.332 -0.167,0.591 v 6.034 c 0,0.278 0.053,0.489 0.162,0.633 0.108,0.145 0.258,0.215 0.454,0.215 0.202,0 0.36,-0.068 0.469,-0.207 0.11,-0.134 0.166,-0.328 0.166,-0.582"
           style="fill:#ffffff;fill-opacity:1;fill-rule:nonzero;stroke:none"
           id="path4405" /><path
           d="m 174.229,68.781 v 5.99 c 0,0.278 0.061,0.487 0.178,0.628 0.118,0.142 0.277,0.212 0.478,0.212 0.2,0 0.361,-0.07 0.485,-0.209 0.121,-0.14 0.184,-0.352 0.184,-0.631 v -5.99 c 0,-0.28 -0.064,-0.492 -0.187,-0.633 -0.124,-0.136 -0.286,-0.209 -0.482,-0.209 -0.195,0 -0.35,0.073 -0.472,0.219 -0.122,0.146 -0.184,0.352 -0.184,0.623"
           style="fill:#ffffff;fill-opacity:1;fill-rule:nonzero;stroke:none"
           id="path4407" /><path
           d="m 178.245,72.771 v -3.99 c 0,-0.279 -0.065,-0.488 -0.188,-0.629 -0.127,-0.14 -0.289,-0.213 -0.481,-0.213 -0.194,0 -0.352,0.073 -0.473,0.217 -0.121,0.148 -0.182,0.354 -0.182,0.625 v 3.951 c 0,0.27 0.061,0.477 0.182,0.615 0.121,0.139 0.279,0.21 0.473,0.21 0.192,0 0.354,-0.071 0.481,-0.21 0.123,-0.138 0.188,-0.329 0.188,-0.576 m -0.656,1.428 c -0.183,0 -0.34,0.059 -0.474,0.18 -0.127,0.117 -0.194,0.287 -0.194,0.502 0,0.195 0.067,0.355 0.202,0.483 0.132,0.128 0.288,0.187 0.466,0.187 0.171,0 0.325,-0.056 0.457,-0.169 0.131,-0.115 0.199,-0.284 0.199,-0.501 0,-0.213 -0.066,-0.379 -0.195,-0.498 -0.13,-0.12 -0.282,-0.184 -0.461,-0.184"
           style="fill:#ffffff;fill-opacity:1;fill-rule:nonzero;stroke:none"
           id="path4409" /><path
           d="m 184.353,69.65 c 0,-0.171 -0.048,-0.355 -0.146,-0.55 -0.101,-0.197 -0.25,-0.382 -0.453,-0.559 -0.202,-0.178 -0.456,-0.32 -0.763,-0.428 -0.307,-0.109 -0.653,-0.161 -1.037,-0.161 -0.818,0 -1.456,0.248 -1.916,0.745 -0.458,0.498 -0.688,1.164 -0.688,2 0,0.567 0.104,1.069 0.314,1.504 0.21,0.432 0.515,0.772 0.912,1.008 0.397,0.24 0.873,0.357 1.424,0.357 0.344,0 0.659,-0.053 0.946,-0.156 0.285,-0.105 0.528,-0.24 0.726,-0.404 0.198,-0.166 0.35,-0.343 0.456,-0.529 0.107,-0.187 0.157,-0.362 0.157,-0.524 0,-0.163 -0.06,-0.303 -0.177,-0.42 -0.118,-0.115 -0.26,-0.172 -0.429,-0.172 -0.11,0 -0.201,0.033 -0.274,0.09 -0.072,0.058 -0.155,0.151 -0.245,0.285 -0.162,0.255 -0.33,0.45 -0.507,0.58 -0.176,0.127 -0.4,0.193 -0.67,0.193 -0.392,0 -0.708,-0.161 -0.947,-0.481 -0.24,-0.32 -0.358,-0.755 -0.358,-1.309 0,-0.259 0.031,-0.5 0.093,-0.716 0.061,-0.22 0.15,-0.403 0.265,-0.558 0.117,-0.154 0.257,-0.269 0.422,-0.347 0.165,-0.082 0.347,-0.121 0.542,-0.121 0.267,0 0.492,0.063 0.682,0.192 0.19,0.13 0.357,0.325 0.501,0.586 0.083,0.159 0.171,0.278 0.264,0.368 0.094,0.088 0.208,0.129 0.344,0.129 0.162,0 0.295,-0.063 0.403,-0.189 0.105,-0.131 0.159,-0.268 0.159,-0.413"
           style="fill:#ffffff;fill-opacity:1;fill-rule:nonzero;stroke:none"
           id="path4411" /><path
           d="m 186.534,70.756 c 0,-0.373 0.055,-0.692 0.167,-0.957 0.112,-0.263 0.262,-0.458 0.456,-0.592 0.196,-0.135 0.406,-0.202 0.635,-0.202 0.233,0 0.446,0.065 0.638,0.19 0.192,0.127 0.344,0.323 0.461,0.582 0.114,0.262 0.17,0.588 0.17,0.979 0,0.37 -0.056,0.684 -0.17,0.95 -0.117,0.267 -0.27,0.468 -0.466,0.61 -0.196,0.139 -0.409,0.209 -0.642,0.209 -0.241,0 -0.457,-0.074 -0.649,-0.216 -0.19,-0.143 -0.339,-0.35 -0.443,-0.618 -0.105,-0.269 -0.157,-0.578 -0.157,-0.935 m 2.601,-2.027 v 0.136 c -0.177,-0.213 -0.353,-0.385 -0.527,-0.517 -0.171,-0.135 -0.359,-0.235 -0.562,-0.305 -0.2,-0.066 -0.422,-0.104 -0.661,-0.104 -0.315,0 -0.611,0.073 -0.88,0.209 -0.268,0.145 -0.503,0.342 -0.7,0.602 -0.197,0.26 -0.345,0.564 -0.449,0.918 -0.103,0.348 -0.152,0.728 -0.152,1.139 0,0.861 0.202,1.537 0.607,2.019 0.404,0.483 0.935,0.725 1.594,0.725 0.381,0 0.703,-0.071 0.965,-0.21 0.261,-0.134 0.516,-0.345 0.765,-0.63 v 2.041 c 0,0.283 0.054,0.497 0.163,0.641 0.108,0.146 0.26,0.218 0.461,0.218 0.2,0 0.354,-0.067 0.464,-0.199 0.108,-0.133 0.164,-0.33 0.164,-0.59 v -6.093 c 0,-0.262 -0.059,-0.46 -0.176,-0.591 -0.117,-0.133 -0.266,-0.199 -0.452,-0.199 -0.178,0 -0.329,0.069 -0.448,0.206 -0.117,0.134 -0.176,0.329 -0.176,0.584"
           style="fill:#ffffff;fill-opacity:1;fill-rule:nonzero;stroke:none"
           id="path4413" /><path
           d="m 195.341,70.746 c 0,0.561 -0.119,1 -0.357,1.314 -0.237,0.311 -0.557,0.471 -0.958,0.471 -0.259,0 -0.486,-0.071 -0.684,-0.211 -0.195,-0.141 -0.347,-0.347 -0.454,-0.621 -0.107,-0.271 -0.161,-0.589 -0.161,-0.953 0,-0.361 0.054,-0.677 0.159,-0.947 0.103,-0.268 0.254,-0.476 0.451,-0.619 0.194,-0.143 0.426,-0.213 0.689,-0.213 0.401,0 0.721,0.156 0.958,0.471 0.238,0.314 0.357,0.751 0.357,1.308 m 1.328,0 c 0,-0.41 -0.062,-0.79 -0.184,-1.14 -0.123,-0.344 -0.3,-0.643 -0.532,-0.893 -0.235,-0.25 -0.512,-0.438 -0.835,-0.575 -0.324,-0.133 -0.689,-0.199 -1.092,-0.199 -0.4,0 -0.76,0.066 -1.08,0.204 -0.32,0.134 -0.598,0.327 -0.833,0.579 -0.233,0.251 -0.41,0.547 -0.533,0.887 -0.121,0.346 -0.181,0.723 -0.181,1.139 0,0.418 0.062,0.801 0.184,1.147 0.123,0.348 0.298,0.644 0.528,0.892 0.23,0.246 0.507,0.436 0.835,0.568 0.327,0.133 0.685,0.202 1.08,0.202 0.402,0 0.766,-0.069 1.092,-0.203 0.325,-0.135 0.606,-0.33 0.838,-0.58 0.233,-0.249 0.41,-0.546 0.529,-0.891 0.124,-0.343 0.184,-0.723 0.184,-1.137"
           style="fill:#ffffff;fill-opacity:1;fill-rule:nonzero;stroke:none"
           id="path4415" /><path
           d="m 202.26,71.885 c -0.1,-0.233 -0.147,-0.644 -0.147,-1.237 v -1.835 c 0,-0.291 -0.062,-0.509 -0.189,-0.655 -0.127,-0.146 -0.295,-0.219 -0.5,-0.219 -0.199,0 -0.361,0.073 -0.485,0.219 -0.126,0.146 -0.186,0.364 -0.186,0.655 v 2.203 c 0,0.345 -0.013,0.615 -0.036,0.809 -0.024,0.191 -0.084,0.35 -0.184,0.474 -0.098,0.123 -0.258,0.185 -0.474,0.185 -0.433,0 -0.717,-0.156 -0.855,-0.468 -0.139,-0.31 -0.205,-0.756 -0.205,-1.336 v -1.867 c 0,-0.29 -0.063,-0.507 -0.186,-0.651 -0.126,-0.15 -0.29,-0.223 -0.491,-0.223 -0.201,0 -0.368,0.073 -0.495,0.223 -0.128,0.144 -0.189,0.361 -0.189,0.649 v 3.955 c 0,0.258 0.054,0.457 0.169,0.589 0.116,0.135 0.267,0.206 0.455,0.206 0.18,0 0.332,-0.064 0.453,-0.19 0.12,-0.127 0.181,-0.301 0.181,-0.524 v -0.132 c 0.229,0.287 0.476,0.498 0.737,0.632 0.262,0.134 0.555,0.204 0.873,0.204 0.332,0 0.615,-0.071 0.855,-0.21 0.241,-0.136 0.436,-0.347 0.591,-0.626 0.224,0.281 0.462,0.494 0.719,0.63 0.255,0.136 0.538,0.206 0.847,0.206 0.365,0 0.674,-0.073 0.936,-0.224 0.263,-0.149 0.458,-0.36 0.587,-0.638 0.114,-0.25 0.17,-0.642 0.17,-1.18 v -2.696 c 0,-0.291 -0.063,-0.509 -0.188,-0.655 -0.128,-0.146 -0.293,-0.219 -0.501,-0.219 -0.2,0 -0.364,0.073 -0.491,0.223 -0.129,0.144 -0.193,0.361 -0.193,0.651 v 2.324 c 0,0.297 -0.013,0.533 -0.036,0.713 -0.025,0.181 -0.089,0.329 -0.197,0.451 -0.107,0.121 -0.269,0.183 -0.484,0.183 -0.174,0 -0.34,-0.055 -0.494,-0.161 -0.16,-0.11 -0.279,-0.255 -0.367,-0.438"
           style="fill:#ffffff;fill-opacity:1;fill-rule:nonzero;stroke:none"
           id="path4417" /><path
           d="m 209.754,70.719 c -0.195,-0.075 -0.476,-0.153 -0.846,-0.237 -0.371,-0.082 -0.628,-0.141 -0.769,-0.181 -0.144,-0.039 -0.279,-0.114 -0.408,-0.228 -0.129,-0.116 -0.194,-0.274 -0.194,-0.475 0,-0.211 0.076,-0.389 0.228,-0.535 0.153,-0.149 0.352,-0.219 0.597,-0.219 0.261,0 0.504,0.059 0.726,0.179 0.221,0.12 0.383,0.276 0.486,0.463 0.12,0.209 0.18,0.553 0.18,1.036 z m 0.086,-2.001 c -0.32,-0.259 -0.629,-0.454 -0.928,-0.582 -0.299,-0.132 -0.635,-0.197 -1.006,-0.197 -0.342,0 -0.636,0.073 -0.895,0.209 -0.257,0.141 -0.454,0.332 -0.595,0.574 -0.138,0.239 -0.208,0.497 -0.208,0.776 0,0.379 0.117,0.701 0.347,0.967 0.226,0.265 0.542,0.444 0.942,0.537 0.085,0.019 0.294,0.064 0.626,0.135 0.334,0.072 0.617,0.136 0.858,0.195 0.238,0.058 0.497,0.129 0.773,0.213 -0.018,0.366 -0.087,0.634 -0.21,0.807 -0.126,0.168 -0.386,0.252 -0.774,0.252 -0.338,0 -0.589,-0.046 -0.761,-0.145 -0.169,-0.097 -0.316,-0.246 -0.435,-0.443 -0.123,-0.196 -0.207,-0.324 -0.256,-0.387 -0.052,-0.063 -0.16,-0.091 -0.323,-0.091 -0.15,0 -0.278,0.048 -0.385,0.148 -0.11,0.099 -0.163,0.225 -0.163,0.382 0,0.244 0.081,0.481 0.246,0.706 0.165,0.232 0.422,0.419 0.771,0.571 0.349,0.148 0.785,0.221 1.306,0.221 0.581,0 1.039,-0.073 1.373,-0.216 0.332,-0.141 0.566,-0.366 0.704,-0.68 0.137,-0.308 0.206,-0.721 0.206,-1.234 0,-0.323 0,-0.6 -0.002,-0.825 -0.003,-0.226 -0.004,-0.478 -0.008,-0.755 0,-0.258 0.042,-0.53 0.125,-0.811 0.08,-0.281 0.121,-0.463 0.121,-0.543 0,-0.141 -0.064,-0.272 -0.191,-0.389 -0.125,-0.114 -0.272,-0.174 -0.432,-0.174 -0.137,0 -0.269,0.066 -0.404,0.199 -0.132,0.134 -0.272,0.329 -0.422,0.58"
           style="fill:#ffffff;fill-opacity:1;fill-rule:nonzero;stroke:none"
           id="path4419" /><path
           d="m 213.723,72.771 v -3.99 c 0,-0.279 -0.065,-0.488 -0.19,-0.629 -0.125,-0.14 -0.285,-0.213 -0.478,-0.213 -0.194,0 -0.355,0.073 -0.475,0.217 -0.121,0.148 -0.182,0.354 -0.182,0.625 v 3.951 c 0,0.27 0.061,0.477 0.182,0.615 0.12,0.139 0.281,0.21 0.475,0.21 0.193,0 0.353,-0.071 0.478,-0.21 0.125,-0.138 0.19,-0.329 0.19,-0.576 m -0.656,1.428 c -0.182,0 -0.338,0.059 -0.471,0.18 -0.13,0.117 -0.198,0.287 -0.198,0.502 0,0.195 0.069,0.355 0.204,0.483 0.132,0.128 0.289,0.187 0.465,0.187 0.171,0 0.326,-0.056 0.458,-0.169 0.131,-0.115 0.198,-0.284 0.198,-0.501 0,-0.213 -0.065,-0.379 -0.195,-0.498 -0.13,-0.12 -0.284,-0.184 -0.461,-0.184"
           style="fill:#ffffff;fill-opacity:1;fill-rule:nonzero;stroke:none"
           id="path4421" /><path
           d="m 216.293,72.791 v -0.165 c 0.232,0.319 0.486,0.555 0.761,0.704 0.278,0.15 0.594,0.227 0.956,0.227 0.347,0 0.659,-0.079 0.935,-0.241 0.273,-0.157 0.481,-0.378 0.616,-0.67 0.085,-0.169 0.142,-0.353 0.169,-0.546 0.024,-0.196 0.04,-0.446 0.04,-0.75 v -2.569 c 0,-0.279 -0.064,-0.488 -0.184,-0.629 -0.121,-0.14 -0.28,-0.213 -0.473,-0.213 -0.195,0 -0.356,0.073 -0.475,0.219 -0.124,0.146 -0.188,0.352 -0.188,0.623 v 2.299 c 0,0.459 -0.057,0.805 -0.179,1.047 -0.125,0.24 -0.366,0.362 -0.728,0.362 -0.236,0 -0.449,-0.073 -0.644,-0.221 -0.194,-0.145 -0.336,-0.348 -0.426,-0.604 -0.065,-0.205 -0.098,-0.589 -0.098,-1.156 v -1.727 c 0,-0.28 -0.062,-0.492 -0.187,-0.633 -0.125,-0.136 -0.286,-0.209 -0.483,-0.209 -0.188,0 -0.348,0.073 -0.469,0.217 -0.125,0.148 -0.185,0.354 -0.185,0.625 v 3.99 c 0,0.264 0.054,0.458 0.166,0.589 0.107,0.13 0.262,0.197 0.45,0.197 0.116,0 0.222,-0.032 0.314,-0.088 0.097,-0.056 0.169,-0.144 0.226,-0.256 0.056,-0.117 0.086,-0.256 0.086,-0.422"
           style="fill:#ffffff;fill-opacity:1;fill-rule:nonzero;stroke:none"
           id="path4423" /><path
           d="m 221.893,72.695 1.069,-3.134 1.155,3.271 c 0.092,0.264 0.18,0.448 0.268,0.56 0.088,0.108 0.219,0.165 0.396,0.165 0.17,0 0.312,-0.06 0.432,-0.18 0.116,-0.117 0.176,-0.252 0.176,-0.41 0,-0.061 -0.012,-0.131 -0.034,-0.208 -0.019,-0.084 -0.042,-0.159 -0.072,-0.232 -0.027,-0.068 -0.055,-0.151 -0.094,-0.242 l -1.271,-3.287 c -0.035,-0.095 -0.082,-0.217 -0.138,-0.361 -0.056,-0.145 -0.12,-0.266 -0.188,-0.373 -0.072,-0.102 -0.156,-0.18 -0.256,-0.237 -0.104,-0.057 -0.228,-0.088 -0.374,-0.088 -0.188,0 -0.337,0.045 -0.448,0.133 -0.114,0.09 -0.196,0.188 -0.248,0.296 -0.051,0.105 -0.144,0.316 -0.268,0.63 l -1.264,3.252 c -0.028,0.08 -0.058,0.162 -0.089,0.242 -0.03,0.081 -0.054,0.162 -0.077,0.248 -0.019,0.086 -0.031,0.158 -0.031,0.217 0,0.096 0.027,0.189 0.084,0.281 0.054,0.094 0.131,0.171 0.227,0.229 0.097,0.058 0.201,0.09 0.316,0.09 0.219,0 0.369,-0.067 0.453,-0.202 0.082,-0.129 0.175,-0.349 0.276,-0.66"
           style="fill:#ffffff;fill-opacity:1;fill-rule:nonzero;stroke:none"
           id="path4425" /><path
           d="m 227.307,71.195 h 2.398 c -0.031,0.471 -0.152,0.825 -0.366,1.059 -0.212,0.232 -0.49,0.35 -0.837,0.35 -0.328,0 -0.6,-0.118 -0.811,-0.356 -0.211,-0.236 -0.337,-0.588 -0.384,-1.053 m 2.589,-0.785 h -2.589 c 0.002,-0.316 0.063,-0.59 0.179,-0.832 0.121,-0.237 0.276,-0.418 0.471,-0.541 0.195,-0.123 0.412,-0.182 0.648,-0.182 0.159,0 0.305,0.02 0.433,0.057 0.132,0.042 0.259,0.102 0.383,0.184 0.12,0.082 0.233,0.17 0.337,0.267 0.103,0.093 0.24,0.219 0.402,0.383 0.07,0.063 0.168,0.092 0.292,0.092 0.138,0 0.245,-0.039 0.329,-0.117 0.086,-0.078 0.126,-0.188 0.126,-0.328 0,-0.124 -0.046,-0.271 -0.141,-0.439 -0.093,-0.166 -0.231,-0.327 -0.424,-0.481 -0.189,-0.153 -0.426,-0.28 -0.713,-0.381 -0.283,-0.103 -0.611,-0.153 -0.986,-0.153 -0.85,0 -1.51,0.254 -1.981,0.758 -0.471,0.509 -0.707,1.194 -0.707,2.059 0,0.412 0.061,0.789 0.175,1.138 0.116,0.349 0.285,0.648 0.509,0.897 0.222,0.251 0.496,0.443 0.824,0.576 0.326,0.133 0.686,0.199 1.087,0.199 0.513,0 0.958,-0.113 1.327,-0.343 0.371,-0.227 0.648,-0.52 0.832,-0.879 0.186,-0.364 0.276,-0.729 0.276,-1.106 0,-0.345 -0.092,-0.572 -0.286,-0.672 -0.191,-0.106 -0.458,-0.156 -0.803,-0.156"
           style="fill:#ffffff;fill-opacity:1;fill-rule:nonzero;stroke:none"
           id="path4427" /><path
           d="m 236.849,69.65 c 0,-0.171 -0.049,-0.355 -0.15,-0.55 -0.098,-0.197 -0.246,-0.382 -0.45,-0.559 -0.201,-0.178 -0.458,-0.32 -0.765,-0.428 -0.306,-0.109 -0.653,-0.161 -1.035,-0.161 -0.82,0 -1.458,0.248 -1.916,0.745 -0.458,0.498 -0.69,1.164 -0.69,2 0,0.567 0.104,1.069 0.316,1.504 0.21,0.432 0.513,0.772 0.911,1.008 0.397,0.24 0.873,0.357 1.426,0.357 0.344,0 0.656,-0.053 0.943,-0.156 0.287,-0.105 0.527,-0.24 0.728,-0.404 0.199,-0.166 0.35,-0.343 0.456,-0.529 0.105,-0.187 0.157,-0.362 0.157,-0.524 0,-0.163 -0.057,-0.303 -0.179,-0.42 -0.117,-0.115 -0.259,-0.172 -0.427,-0.172 -0.111,0 -0.201,0.033 -0.272,0.09 -0.075,0.058 -0.156,0.151 -0.248,0.285 -0.161,0.255 -0.329,0.45 -0.506,0.58 -0.175,0.127 -0.401,0.193 -0.672,0.193 -0.388,0 -0.706,-0.161 -0.943,-0.481 -0.241,-0.32 -0.36,-0.755 -0.36,-1.309 0,-0.259 0.033,-0.5 0.091,-0.716 0.062,-0.22 0.152,-0.403 0.269,-0.558 0.115,-0.154 0.257,-0.269 0.42,-0.347 0.164,-0.082 0.346,-0.121 0.543,-0.121 0.265,0 0.494,0.063 0.682,0.192 0.189,0.13 0.357,0.325 0.503,0.586 0.081,0.159 0.167,0.278 0.261,0.368 0.093,0.088 0.206,0.129 0.345,0.129 0.159,0 0.295,-0.063 0.399,-0.189 0.108,-0.131 0.163,-0.268 0.163,-0.413"
           style="fill:#ffffff;fill-opacity:1;fill-rule:nonzero;stroke:none"
           id="path4429" /><path
           d="m 238.078,73.439 h 0.147 v 0.831 c 0,0.22 0.004,0.398 0.015,0.523 0.012,0.127 0.041,0.232 0.096,0.326 0.05,0.093 0.125,0.17 0.223,0.231 0.095,0.058 0.203,0.086 0.324,0.086 0.168,0 0.32,-0.065 0.454,-0.196 0.091,-0.09 0.148,-0.195 0.173,-0.32 0.024,-0.127 0.035,-0.309 0.035,-0.541 v -0.94 h 0.487 c 0.188,0 0.331,-0.046 0.429,-0.14 0.1,-0.092 0.148,-0.209 0.148,-0.355 0,-0.185 -0.069,-0.318 -0.213,-0.389 -0.138,-0.075 -0.34,-0.112 -0.603,-0.112 h -0.248 v -2.545 c 0,-0.216 0.008,-0.382 0.022,-0.5 0.017,-0.117 0.058,-0.21 0.12,-0.283 0.061,-0.072 0.164,-0.11 0.307,-0.11 0.077,0 0.182,0.015 0.317,0.044 0.128,0.029 0.232,0.043 0.308,0.043 0.106,0 0.204,-0.047 0.288,-0.131 0.085,-0.092 0.129,-0.201 0.129,-0.334 0,-0.222 -0.115,-0.392 -0.348,-0.511 -0.236,-0.117 -0.569,-0.177 -1.003,-0.177 -0.415,0 -0.73,0.073 -0.943,0.219 -0.212,0.146 -0.353,0.344 -0.418,0.604 -0.066,0.257 -0.099,0.597 -0.099,1.027 v 2.654 h -0.177 c -0.189,0 -0.334,0.046 -0.435,0.143 -0.101,0.093 -0.15,0.213 -0.15,0.358 0,0.146 0.053,0.263 0.155,0.355 0.107,0.094 0.259,0.14 0.46,0.14"
           style="fill:#ffffff;fill-opacity:1;fill-rule:nonzero;stroke:none"
           id="path4431" /><path
           d="m 245.145,70.746 c 0,0.561 -0.121,1 -0.358,1.314 -0.238,0.311 -0.555,0.471 -0.957,0.471 -0.259,0 -0.486,-0.071 -0.684,-0.211 -0.197,-0.141 -0.349,-0.347 -0.455,-0.621 -0.107,-0.271 -0.16,-0.589 -0.16,-0.953 0,-0.361 0.053,-0.677 0.158,-0.947 0.106,-0.268 0.254,-0.476 0.451,-0.619 0.194,-0.143 0.424,-0.213 0.69,-0.213 0.402,0 0.719,0.156 0.957,0.471 0.237,0.314 0.358,0.751 0.358,1.308 m 1.328,0 c 0,-0.41 -0.062,-0.79 -0.186,-1.14 -0.122,-0.344 -0.301,-0.643 -0.531,-0.893 -0.235,-0.25 -0.513,-0.438 -0.834,-0.575 -0.324,-0.133 -0.686,-0.199 -1.092,-0.199 -0.402,0 -0.762,0.066 -1.082,0.204 -0.318,0.134 -0.598,0.327 -0.83,0.579 -0.234,0.251 -0.413,0.547 -0.532,0.887 -0.122,0.346 -0.181,0.723 -0.181,1.139 0,0.418 0.059,0.801 0.181,1.147 0.126,0.348 0.299,0.644 0.528,0.892 0.232,0.246 0.509,0.436 0.834,0.568 0.33,0.133 0.69,0.202 1.082,0.202 0.402,0 0.764,-0.069 1.092,-0.203 0.326,-0.135 0.605,-0.33 0.838,-0.58 0.23,-0.249 0.41,-0.546 0.531,-0.891 0.12,-0.343 0.182,-0.723 0.182,-1.137"
           style="fill:#ffffff;fill-opacity:1;fill-rule:nonzero;stroke:none"
           id="path4433" /><path
           d="m 248.831,69.932 v -1.151 c 0,-0.28 -0.063,-0.492 -0.19,-0.633 -0.126,-0.136 -0.286,-0.209 -0.481,-0.209 -0.189,0 -0.347,0.073 -0.471,0.213 -0.122,0.141 -0.181,0.35 -0.181,0.629 v 3.844 c 0,0.621 0.213,0.932 0.643,0.932 0.218,0 0.378,-0.076 0.476,-0.219 0.096,-0.145 0.146,-0.359 0.159,-0.643 0.159,0.284 0.321,0.498 0.489,0.643 0.166,0.143 0.387,0.219 0.664,0.219 0.281,0 0.548,-0.076 0.812,-0.219 0.261,-0.145 0.394,-0.338 0.394,-0.576 0,-0.169 -0.059,-0.311 -0.17,-0.418 -0.11,-0.11 -0.231,-0.165 -0.362,-0.165 -0.047,0 -0.165,0.032 -0.351,0.095 -0.186,0.062 -0.35,0.093 -0.493,0.093 -0.193,0 -0.351,-0.051 -0.472,-0.16 -0.123,-0.107 -0.219,-0.264 -0.287,-0.473 -0.069,-0.21 -0.117,-0.458 -0.142,-0.747 -0.024,-0.288 -0.037,-0.637 -0.037,-1.055"
           style="fill:#ffffff;fill-opacity:1;fill-rule:nonzero;stroke:none"
           id="path4435" /><path
           d="m 255.88,69.744 c 0,-0.381 -0.089,-0.707 -0.269,-0.978 -0.177,-0.274 -0.441,-0.477 -0.787,-0.62 -0.348,-0.134 -0.769,-0.207 -1.27,-0.207 -0.472,0 -0.881,0.078 -1.222,0.229 -0.338,0.152 -0.59,0.342 -0.75,0.567 -0.163,0.228 -0.246,0.455 -0.246,0.685 0,0.151 0.053,0.282 0.158,0.389 0.104,0.11 0.235,0.163 0.392,0.163 0.138,0 0.247,-0.036 0.32,-0.107 0.075,-0.073 0.144,-0.172 0.214,-0.299 0.136,-0.247 0.297,-0.43 0.488,-0.552 0.186,-0.123 0.446,-0.184 0.776,-0.184 0.263,0 0.48,0.063 0.65,0.186 0.168,0.124 0.257,0.263 0.257,0.422 0,0.244 -0.091,0.423 -0.265,0.532 -0.18,0.114 -0.468,0.219 -0.872,0.32 -0.456,0.119 -0.827,0.243 -1.113,0.372 -0.285,0.13 -0.518,0.303 -0.688,0.515 -0.171,0.21 -0.258,0.473 -0.258,0.784 0,0.277 0.08,0.539 0.239,0.782 0.157,0.248 0.393,0.445 0.702,0.591 0.309,0.147 0.68,0.223 1.118,0.223 0.343,0 0.65,-0.039 0.924,-0.113 0.272,-0.073 0.503,-0.174 0.683,-0.298 0.182,-0.125 0.324,-0.263 0.418,-0.414 0.097,-0.154 0.142,-0.302 0.142,-0.447 0,-0.158 -0.049,-0.285 -0.152,-0.39 -0.102,-0.098 -0.248,-0.15 -0.434,-0.15 -0.137,0 -0.25,0.04 -0.347,0.122 -0.094,0.08 -0.206,0.201 -0.328,0.362 -0.099,0.136 -0.217,0.245 -0.354,0.326 -0.136,0.078 -0.32,0.12 -0.552,0.12 -0.239,0 -0.44,-0.054 -0.596,-0.159 -0.159,-0.107 -0.239,-0.24 -0.239,-0.399 0,-0.144 0.059,-0.263 0.174,-0.356 0.117,-0.093 0.273,-0.17 0.471,-0.232 0.199,-0.06 0.47,-0.135 0.816,-0.222 0.41,-0.104 0.746,-0.229 1.006,-0.375 0.26,-0.144 0.457,-0.315 0.591,-0.512 0.136,-0.2 0.203,-0.424 0.203,-0.676"
           style="fill:#ffffff;fill-opacity:1;fill-rule:nonzero;stroke:none"
           id="path4437" /><path
           d="m 257.383,67.939 c -0.2,0 -0.373,0.066 -0.518,0.204 -0.146,0.134 -0.219,0.324 -0.219,0.564 0,0.205 0.068,0.383 0.206,0.531 0.138,0.149 0.312,0.221 0.515,0.221 0.203,0 0.378,-0.072 0.518,-0.22 0.146,-0.143 0.219,-0.325 0.219,-0.532 0,-0.238 -0.073,-0.428 -0.219,-0.562 -0.14,-0.137 -0.308,-0.206 -0.502,-0.206"
           style="fill:#ffffff;fill-opacity:1;fill-rule:nonzero;stroke:none"
           id="path4439" /><path
           d="m 263.235,70.746 c 0,0.561 -0.12,1 -0.356,1.314 -0.236,0.311 -0.556,0.471 -0.957,0.471 -0.258,0 -0.484,-0.071 -0.682,-0.211 -0.197,-0.141 -0.349,-0.347 -0.455,-0.621 -0.105,-0.271 -0.16,-0.589 -0.16,-0.953 0,-0.361 0.051,-0.677 0.156,-0.947 0.107,-0.268 0.257,-0.476 0.452,-0.619 0.195,-0.143 0.425,-0.213 0.689,-0.213 0.401,0 0.721,0.156 0.957,0.471 0.236,0.314 0.356,0.751 0.356,1.308 m 1.331,0 c 0,-0.41 -0.061,-0.79 -0.187,-1.14 -0.122,-0.344 -0.299,-0.643 -0.531,-0.893 -0.235,-0.25 -0.509,-0.438 -0.834,-0.575 -0.323,-0.133 -0.686,-0.199 -1.092,-0.199 -0.401,0 -0.76,0.066 -1.08,0.204 -0.321,0.134 -0.596,0.327 -0.83,0.579 -0.237,0.251 -0.413,0.547 -0.537,0.887 -0.118,0.346 -0.179,0.723 -0.179,1.139 0,0.418 0.061,0.801 0.183,1.147 0.126,0.348 0.298,0.644 0.527,0.892 0.23,0.246 0.509,0.436 0.836,0.568 0.326,0.133 0.685,0.202 1.08,0.202 0.401,0 0.765,-0.069 1.092,-0.203 0.327,-0.135 0.606,-0.33 0.839,-0.58 0.231,-0.249 0.409,-0.546 0.53,-0.891 0.122,-0.343 0.183,-0.723 0.183,-1.137"
           style="fill:#ffffff;fill-opacity:1;fill-rule:nonzero;stroke:none"
           id="path4441" /><path
           d="m 266.922,69.932 v -1.151 c 0,-0.28 -0.063,-0.492 -0.188,-0.633 -0.125,-0.136 -0.285,-0.209 -0.478,-0.209 -0.194,0 -0.349,0.073 -0.473,0.213 -0.123,0.141 -0.183,0.35 -0.183,0.629 v 3.844 c 0,0.621 0.216,0.932 0.644,0.932 0.221,0 0.377,-0.076 0.475,-0.219 0.094,-0.145 0.152,-0.359 0.162,-0.643 0.156,0.284 0.318,0.498 0.486,0.643 0.166,0.143 0.389,0.219 0.664,0.219 0.282,0 0.552,-0.076 0.811,-0.219 0.262,-0.145 0.394,-0.338 0.394,-0.576 0,-0.169 -0.056,-0.311 -0.166,-0.418 -0.115,-0.11 -0.232,-0.165 -0.365,-0.165 -0.047,0 -0.162,0.032 -0.35,0.095 -0.185,0.062 -0.349,0.093 -0.494,0.093 -0.191,0 -0.348,-0.051 -0.474,-0.16 -0.121,-0.107 -0.217,-0.264 -0.285,-0.473 -0.067,-0.21 -0.116,-0.458 -0.14,-0.747 -0.024,-0.288 -0.04,-0.637 -0.04,-1.055"
           style="fill:#ffffff;fill-opacity:1;fill-rule:nonzero;stroke:none"
           id="path4443" /><path
           d="m 270.744,70.793 c 0,-0.559 0.117,-0.982 0.353,-1.271 0.233,-0.285 0.537,-0.43 0.906,-0.43 0.219,0 0.43,0.064 0.624,0.187 0.195,0.124 0.355,0.308 0.478,0.555 0.124,0.25 0.184,0.551 0.184,0.903 0,0.564 -0.12,1.001 -0.356,1.316 -0.238,0.314 -0.551,0.472 -0.937,0.472 -0.377,0 -0.682,-0.154 -0.908,-0.451 -0.231,-0.302 -0.344,-0.726 -0.344,-1.281 m 3.836,1.752 v -4.014 c 0,-0.46 -0.051,-0.855 -0.142,-1.183 -0.092,-0.332 -0.245,-0.606 -0.451,-0.821 -0.206,-0.216 -0.477,-0.376 -0.809,-0.48 -0.336,-0.104 -0.754,-0.156 -1.25,-0.156 -0.457,0 -0.865,0.064 -1.223,0.197 -0.358,0.137 -0.635,0.307 -0.83,0.519 -0.193,0.209 -0.291,0.426 -0.291,0.651 0,0.168 0.055,0.305 0.167,0.411 0.108,0.108 0.241,0.161 0.396,0.161 0.195,0 0.363,-0.091 0.511,-0.267 0.071,-0.095 0.147,-0.186 0.219,-0.277 0.075,-0.095 0.159,-0.175 0.252,-0.238 0.092,-0.069 0.205,-0.116 0.335,-0.15 0.126,-0.032 0.276,-0.047 0.444,-0.047 0.341,0 0.611,0.05 0.797,0.15 0.19,0.098 0.322,0.237 0.4,0.416 0.073,0.179 0.122,0.369 0.128,0.575 0.017,0.205 0.025,0.531 0.035,0.985 -0.205,-0.295 -0.444,-0.523 -0.707,-0.677 -0.266,-0.155 -0.584,-0.231 -0.952,-0.231 -0.445,0 -0.834,0.116 -1.162,0.353 -0.333,0.236 -0.588,0.565 -0.765,0.992 -0.174,0.424 -0.267,0.914 -0.267,1.473 0,0.416 0.054,0.791 0.165,1.125 0.106,0.332 0.26,0.614 0.463,0.843 0.197,0.231 0.43,0.404 0.692,0.521 0.264,0.114 0.548,0.175 0.864,0.175 0.373,0 0.698,-0.078 0.972,-0.229 0.279,-0.147 0.531,-0.384 0.767,-0.705 v 0.186 c 0,0.241 0.058,0.425 0.17,0.56 0.113,0.13 0.258,0.198 0.435,0.198 0.256,0 0.427,-0.088 0.512,-0.262 0.083,-0.174 0.125,-0.426 0.125,-0.754"
           style="fill:#ffffff;fill-opacity:1;fill-rule:nonzero;stroke:none"
           id="path4445" /><path
           d="m 217.216,85.995 h 1.964 c -0.139,-1.057 -0.573,-1.885 -1.294,-2.479 -0.667,-0.582 -1.476,-0.87 -2.421,-0.87 -1.281,0 -2.305,0.452 -3.069,1.349 -0.725,0.857 -1.085,1.96 -1.085,3.308 0,1.382 0.358,2.488 1.075,3.322 0.716,0.833 1.728,1.252 3.036,1.252 0.973,0 1.797,-0.264 2.464,-0.786 0.708,-0.564 1.141,-1.357 1.294,-2.373 h -1.964 c -0.169,0.886 -0.71,1.329 -1.631,1.329 -1.517,0 -2.278,-0.901 -2.278,-2.698 0,-0.843 0.197,-1.531 0.586,-2.068 0.39,-0.538 0.94,-0.806 1.65,-0.806 1.059,0 1.617,0.506 1.673,1.52 m -7.728,1.238 c 0,-1.756 0.558,-3.245 1.67,-4.456 1.113,-1.213 2.477,-1.818 4.094,-1.818 1.612,0 2.977,0.605 4.089,1.818 1.115,1.211 1.669,2.7 1.669,4.456 0,1.757 -0.554,3.244 -1.669,4.455 -1.112,1.212 -2.477,1.819 -4.089,1.819 -1.617,0 -2.981,-0.607 -4.094,-1.819 -1.112,-1.211 -1.67,-2.698 -1.67,-4.455 m -1.994,0 c 0,2.236 0.756,4.144 2.271,5.73 1.516,1.582 3.344,2.373 5.487,2.373 2.139,0 3.966,-0.791 5.482,-2.373 1.516,-1.586 2.276,-3.494 2.276,-5.73 0,-2.237 -0.76,-4.147 -2.276,-5.731 -1.516,-1.582 -3.343,-2.375 -5.482,-2.375 -2.143,0 -3.971,0.793 -5.487,2.375 -1.515,1.584 -2.271,3.494 -2.271,5.731"
           style="fill:#ffffff;fill-opacity:1;fill-rule:nonzero;stroke:none"
           id="path4447" /><path
           d="m 210.633,82.15 1.132,-0.959 8.321,10.685 -1.131,0.958 z"
           style="fill:#ffffff;fill-opacity:1;fill-rule:nonzero;stroke:none"
           id="path4449" /></g></g></g></svg>
